<?xml version="1.0" encoding="UTF-8" standalone="no"?>
<!DOCTYPE svg PUBLIC "-//W3C//DTD SVG 1.1//EN" "http://www.w3.org/Graphics/SVG/1.1/DTD/svg11.dtd">
<!-- Created with Vectornator (http://vectornator.io/) -->
<svg height="100%" stroke-miterlimit="10" style="fill-rule:nonzero;clip-rule:evenodd;stroke-linecap:round;stroke-linejoin:round;" version="1.1" viewBox="0 0 1150 1804" width="100%" xml:space="preserve" xmlns="http://www.w3.org/2000/svg" xmlns:vectornator="http://vectornator.io" xmlns:xlink="http://www.w3.org/1999/xlink">
<defs>
<linearGradient gradientTransform="matrix(239.868 -273.562 266.945 239.868 705.733 1527.24)" gradientUnits="userSpaceOnUse" id="LinearGradient" x1="0" x2="1" y1="0" y2="0">
<stop offset="0" stop-color="#b5ebe3"/>
<stop offset="1" stop-color="#97681d"/>
</linearGradient>
</defs>
<g id="Fennek" vectornator:layerName="Fennek">
<path d="M950 600L950 200L200 200L820 580.5" fill="#e3904c" fill-rule="nonzero" opacity="1" stroke="none" vectornator:layerName="Kurve 2"/>
<g opacity="1" vectornator:layerName="Kurve 2">
<path d="M202.938 194.781C200.964 194.781 198.684 194.541 197.094 195.969C196.632 196.384 196.175 196.831 195.875 197.375C195.509 198.04 195.227 198.779 195.125 199.531C195.035 200.197 195.169 200.875 195.312 201.531C195.856 204.015 198.923 205.469 200.906 206.688C201.31 206.935 201.69 207.19 202.094 207.438C202.901 207.933 203.724 208.411 204.531 208.906C213.007 214.111 221.493 219.327 229.969 224.531C267.503 247.577 305.028 270.611 342.562 293.656C500.773 390.794 658.996 487.914 817.219 585.031C819.718 586.565 822.997 585.781 824.531 583.281C826.065 580.782 825.281 577.503 822.781 575.969C674.234 484.817 525.685 393.663 377.125 302.531C338.37 278.758 299.63 254.992 260.875 231.219C247.957 223.294 235.043 215.362 222.125 207.438C220.919 206.697 219.704 205.963 218.5 205.219C218.677 205.219 218.854 205.219 219.031 205.219C231.238 205.216 243.449 205.222 255.656 205.219C292.277 205.209 328.91 205.197 365.531 205.188C474.418 205.159 583.301 205.123 692.188 205.094C750.781 205.078 809.375 205.07 867.969 205.062C887.988 205.06 908.012 205.065 928.031 205.062C933.402 205.062 938.785 205.063 944.156 205.062C944.418 205.062 944.676 205.063 944.938 205.062C944.945 205.459 944.937 205.856 944.938 206.25C944.938 209.375 944.937 212.5 944.938 215.625C944.939 225.521 944.936 235.417 944.938 245.312C944.941 275 944.965 304.687 944.969 334.375C944.979 422.917 944.966 511.458 944.969 600C944.969 602.776 947.224 605.031 950 605.031C952.776 605.031 955.031 602.776 955.031 600C955.034 497.396 955.019 394.792 955.031 292.188C955.034 268.229 955.06 244.271 955.062 220.312C955.063 218.229 955.062 216.146 955.062 214.062C955.063 212.5 955.062 210.938 955.062 209.375C955.063 208.333 955.062 207.292 955.062 206.25C955.063 205.208 955.062 204.167 955.062 203.125C955.063 201.896 955.163 200.381 954.844 199.188C954.448 197.704 953.498 196.442 952.156 195.688C950.319 194.654 947.614 194.938 945.594 194.938C945.105 194.937 944.645 194.938 944.156 194.938C943.668 194.937 943.176 194.938 942.688 194.938C941.223 194.937 939.746 194.938 938.281 194.938C928.027 194.936 917.785 194.939 907.531 194.938C868.957 194.933 830.387 194.943 791.812 194.938C650.699 194.917 509.582 194.85 368.469 194.812C324.035 194.801 279.59 194.793 235.156 194.781C225.391 194.779 215.641 194.784 205.875 194.781C204.898 194.781 203.914 194.781 202.938 194.781Z" fill="#dbce52" stroke="none"/>
</g>
</g>
<g id="Polarfuchs" vectornator:layerName="Polarfuchs">
<path d="M950 1054L950 888.5L950 800L555 800L888 914L888 999" fill="#ddb18e" fill-rule="nonzero" opacity="1" stroke="none" vectornator:layerName="Kurve 2"/>
<path d="M950 888.5L950 800L555 800" fill="#ceb27a" fill-rule="nonzero" opacity="1" stroke="none" vectornator:layerName="Kurve 1"/>
<g opacity="1" vectornator:layerName="Kurve 2">
<path d="M555.562 794.781C554.666 794.825 553.769 794.961 553.156 795.312C552.631 795.615 552.048 795.856 551.688 796.344C551.021 797.246 550.347 798.234 550.188 799.344C550.032 800.43 550.403 801.563 550.781 802.594C550.982 803.142 551.475 803.543 551.875 803.969C552.816 804.97 554.616 805.402 555.906 805.844C556.34 805.992 556.785 806.133 557.219 806.281C557.652 806.43 558.067 806.57 558.5 806.719C559.367 807.016 560.258 807.328 561.125 807.625C561.992 807.922 562.852 808.203 563.719 808.5C565.453 809.095 567.172 809.687 568.906 810.281C570.64 810.876 572.391 811.468 574.125 812.062C576.293 812.806 578.457 813.57 580.625 814.312C613.574 825.605 646.519 836.895 679.469 848.188C726.291 864.235 773.111 880.245 819.938 896.281C835.113 901.478 850.293 906.678 865.469 911.875C870.238 913.508 875.012 915.148 879.781 916.781C880.749 917.113 881.72 917.45 882.688 917.781C882.687 917.853 882.688 917.928 882.688 918C882.687 919.771 882.688 921.542 882.688 923.312C882.687 928.625 882.688 933.937 882.688 939.25C882.685 959.172 882.69 979.078 882.688 999C882.688 1001.93 885.068 1004.31 888 1004.31C890.932 1004.31 893.312 1001.93 893.312 999C893.31 978.193 893.315 957.401 893.312 936.594C893.312 931.281 893.313 925.969 893.312 920.656C893.312 919.771 893.313 918.885 893.312 918C893.312 915.956 893.578 913.516 892.562 911.656C891.174 909.113 888.328 908.517 885.812 907.656C884.945 907.359 884.086 907.047 883.219 906.75C882.352 906.453 881.492 906.172 880.625 905.875C879.324 905.43 878.02 904.976 876.719 904.531C864.144 900.228 851.575 895.928 839 891.625C787.4 873.967 735.791 856.303 684.188 838.656C653.832 828.276 623.48 817.88 593.125 807.5C590.887 806.735 588.645 805.984 586.406 805.219C594.969 805.215 603.531 805.191 612.094 805.188C650.154 805.17 688.221 805.174 726.281 805.156C776.171 805.133 826.048 805.085 875.938 805.062C892.396 805.055 908.854 805.066 925.312 805.062C930.97 805.061 936.624 805.064 942.281 805.062C943.162 805.062 944.052 805.048 944.938 805.062C944.938 806.144 944.937 807.231 944.938 808.312C944.938 812.922 944.937 817.516 944.938 822.125C944.942 841.945 944.965 861.773 944.969 881.594C944.981 939.065 944.966 996.529 944.969 1054C944.969 1056.78 947.224 1059.03 950 1059.03C952.776 1059.03 955.031 1056.78 955.031 1054C955.035 988.693 955.018 923.401 955.031 858.094C955.034 842.883 955.059 827.648 955.062 812.438C955.063 811.055 955.062 809.695 955.062 808.312C955.063 806.93 955.062 805.539 955.062 804.156C955.063 801.057 955.518 797.755 952.375 795.812C950.433 794.612 947.548 794.938 945.375 794.938C944.861 794.937 944.358 794.938 943.844 794.938C938.701 794.936 933.549 794.939 928.406 794.938C908.348 794.933 888.277 794.947 868.219 794.938C792.613 794.903 717.012 794.847 641.406 794.812C618.262 794.802 595.113 794.792 571.969 794.781C569.911 794.78 567.87 794.782 565.812 794.781C564.27 794.781 562.73 794.782 561.188 794.781C560.159 794.781 559.122 794.782 558.094 794.781C557.376 794.781 556.459 794.738 555.562 794.781Z" fill="#4b4b8a" stroke="none"/>
</g>
</g>
<g id="Rotfuchs" vectornator:layerName="Rotfuchs">
<path d="M950 1604L950 1254L400 1254L700 1527" fill="url(#LinearGradient)" fill-rule="nonzero" opacity="1" stroke="none" vectornator:layerName="Kurve 2"/>
<g opacity="1" vectornator:layerName="Kurve 2">
<path d="M402.156 1248.75C401.231 1248.75 400.113 1248.65 399.219 1248.88C398.073 1249.16 396.995 1249.77 396.25 1250.72C395.886 1251.18 395.586 1251.7 395.375 1252.25C394.792 1253.77 394.981 1255.45 395.75 1256.84C396.423 1258.07 397.786 1259.1 398.812 1260.03C399.203 1260.39 399.578 1260.74 399.969 1261.09C400.359 1261.45 400.766 1261.8 401.156 1262.16C401.937 1262.87 402.719 1263.57 403.5 1264.28C404.672 1265.35 405.828 1266.43 407 1267.5C408.562 1268.92 410.125 1270.33 411.688 1271.75C429.652 1288.11 447.627 1304.46 465.594 1320.81C542.539 1390.85 619.491 1460.9 696.438 1530.94C698.606 1532.91 701.964 1532.73 703.938 1530.56C705.911 1528.39 705.731 1525.04 703.562 1523.06C630.9 1456.95 558.256 1390.86 485.594 1324.75C467.233 1308.04 448.864 1291.33 430.5 1274.62C424.868 1269.5 419.226 1264.37 413.594 1259.25C414.791 1259.25 415.99 1259.25 417.188 1259.25C427.93 1259.25 438.664 1259.25 449.406 1259.25C481.275 1259.24 513.163 1259.23 545.031 1259.22C641.353 1259.18 737.678 1259.13 834 1259.09C859.781 1259.08 885.563 1259.07 911.344 1259.06C919.938 1259.06 928.531 1259.06 937.125 1259.06C939.729 1259.06 942.333 1259.06 944.938 1259.06C944.951 1261.02 944.937 1262.99 944.938 1264.94C944.939 1271.32 944.936 1277.71 944.938 1284.09C944.941 1302.78 944.934 1321.44 944.938 1340.12C944.953 1428.08 944.965 1516.04 944.969 1604C944.969 1606.78 947.224 1609.03 950 1609.03C952.776 1609.03 955.031 1606.78 955.031 1604C955.035 1516.5 955.047 1429 955.062 1341.5C955.066 1319.17 955.059 1296.83 955.062 1274.5C955.063 1269.49 955.062 1264.48 955.062 1259.47C955.063 1258.56 955.062 1257.66 955.062 1256.75C955.063 1255.67 955.143 1254.4 954.906 1253.34C954.695 1252.4 954.27 1251.5 953.625 1250.78C952.87 1249.94 951.881 1249.36 950.781 1249.09C949.866 1248.87 948.786 1248.94 947.844 1248.94C946.411 1248.94 944.995 1248.94 943.562 1248.94C937.475 1248.94 931.368 1248.94 925.281 1248.94C898.426 1248.93 871.574 1248.92 844.719 1248.91C735.865 1248.86 627.01 1248.82 518.156 1248.78C487.004 1248.77 455.871 1248.76 424.719 1248.75C422.57 1248.75 420.398 1248.75 418.25 1248.75C416.46 1248.75 414.697 1248.75 412.906 1248.75C411.474 1248.75 410.026 1248.75 408.594 1248.75C407.52 1248.75 406.449 1248.75 405.375 1248.75C404.301 1248.75 403.23 1248.75 402.156 1248.75Z" fill="#dbce52" stroke="none"/>
</g>
</g>
</svg>
