<svg version="1.1" xmlns="http://www.w3.org/2000/svg" xmlns:xlink="http://www.w3.org/1999/xlink" width="800" height="800"><defs/><g transform="scale(2,2)"><g id="background-f3c0efd1"><rect fill="white" stroke="none" x="0" y="0" width="400" height="400" class="dcg-svg-background"/></g><g id="graphpaper-f3c0efd1"><g id="grid-f3c0efd1"><g><path fill="none" stroke="rgb(0,0,0)" class="dcg-svg-minor-gridline" paint-order="fill stroke markers" d=" M 12.5 0 L 12.5 400" stroke-opacity="0.2" stroke-miterlimit="10" stroke-dasharray=""/><path fill="none" stroke="rgb(0,0,0)" class="dcg-svg-minor-gridline" paint-order="fill stroke markers" d=" M 33.5 0 L 33.5 400" stroke-opacity="0.2" stroke-miterlimit="10" stroke-dasharray=""/><path fill="none" stroke="rgb(0,0,0)" class="dcg-svg-minor-gridline" paint-order="fill stroke markers" d=" M 54.5 0 L 54.5 400" stroke-opacity="0.2" stroke-miterlimit="10" stroke-dasharray=""/><path fill="none" stroke="rgb(0,0,0)" class="dcg-svg-minor-gridline" paint-order="fill stroke markers" d=" M 74.5 0 L 74.5 400" stroke-opacity="0.2" stroke-miterlimit="10" stroke-dasharray=""/><path fill="none" stroke="rgb(0,0,0)" class="dcg-svg-minor-gridline" paint-order="fill stroke markers" d=" M 95.5 0 L 95.5 400" stroke-opacity="0.2" stroke-miterlimit="10" stroke-dasharray=""/><path fill="none" stroke="rgb(0,0,0)" class="dcg-svg-minor-gridline" paint-order="fill stroke markers" d=" M 116.5 0 L 116.5 400" stroke-opacity="0.2" stroke-miterlimit="10" stroke-dasharray=""/><path fill="none" stroke="rgb(0,0,0)" class="dcg-svg-minor-gridline" paint-order="fill stroke markers" d=" M 137.5 0 L 137.5 400" stroke-opacity="0.2" stroke-miterlimit="10" stroke-dasharray=""/><path fill="none" stroke="rgb(0,0,0)" class="dcg-svg-minor-gridline" paint-order="fill stroke markers" d=" M 158.5 0 L 158.5 400" stroke-opacity="0.2" stroke-miterlimit="10" stroke-dasharray=""/><path fill="none" stroke="rgb(0,0,0)" class="dcg-svg-minor-gridline" paint-order="fill stroke markers" d=" M 179.5 0 L 179.5 400" stroke-opacity="0.2" stroke-miterlimit="10" stroke-dasharray=""/><path fill="none" stroke="rgb(0,0,0)" class="dcg-svg-minor-gridline" paint-order="fill stroke markers" d=" M 200.5 0 L 200.5 400" stroke-opacity="0.2" stroke-miterlimit="10" stroke-dasharray=""/><path fill="none" stroke="rgb(0,0,0)" class="dcg-svg-minor-gridline" paint-order="fill stroke markers" d=" M 220.5 0 L 220.5 400" stroke-opacity="0.2" stroke-miterlimit="10" stroke-dasharray=""/><path fill="none" stroke="rgb(0,0,0)" class="dcg-svg-minor-gridline" paint-order="fill stroke markers" d=" M 241.5 0 L 241.5 400" stroke-opacity="0.2" stroke-miterlimit="10" stroke-dasharray=""/><path fill="none" stroke="rgb(0,0,0)" class="dcg-svg-minor-gridline" paint-order="fill stroke markers" d=" M 262.5 0 L 262.5 400" stroke-opacity="0.2" stroke-miterlimit="10" stroke-dasharray=""/><path fill="none" stroke="rgb(0,0,0)" class="dcg-svg-minor-gridline" paint-order="fill stroke markers" d=" M 283.5 0 L 283.5 400" stroke-opacity="0.2" stroke-miterlimit="10" stroke-dasharray=""/><path fill="none" stroke="rgb(0,0,0)" class="dcg-svg-minor-gridline" paint-order="fill stroke markers" d=" M 304.5 0 L 304.5 400" stroke-opacity="0.2" stroke-miterlimit="10" stroke-dasharray=""/><path fill="none" stroke="rgb(0,0,0)" class="dcg-svg-minor-gridline" paint-order="fill stroke markers" d=" M 325.5 0 L 325.5 400" stroke-opacity="0.2" stroke-miterlimit="10" stroke-dasharray=""/><path fill="none" stroke="rgb(0,0,0)" class="dcg-svg-minor-gridline" paint-order="fill stroke markers" d=" M 345.5 0 L 345.5 400" stroke-opacity="0.2" stroke-miterlimit="10" stroke-dasharray=""/><path fill="none" stroke="rgb(0,0,0)" class="dcg-svg-minor-gridline" paint-order="fill stroke markers" d=" M 366.5 0 L 366.5 400" stroke-opacity="0.2" stroke-miterlimit="10" stroke-dasharray=""/><path fill="none" stroke="rgb(0,0,0)" class="dcg-svg-minor-gridline" paint-order="fill stroke markers" d=" M 387.5 0 L 387.5 400" stroke-opacity="0.2" stroke-miterlimit="10" stroke-dasharray=""/><path fill="none" stroke="rgb(0,0,0)" class="dcg-svg-minor-gridline" paint-order="fill stroke markers" d=" M 0 371.5 L 400 371.5" stroke-opacity="0.2" stroke-miterlimit="10" stroke-dasharray=""/><path fill="none" stroke="rgb(0,0,0)" class="dcg-svg-minor-gridline" paint-order="fill stroke markers" d=" M 0 342.5 L 400 342.5" stroke-opacity="0.2" stroke-miterlimit="10" stroke-dasharray=""/><path fill="none" stroke="rgb(0,0,0)" class="dcg-svg-minor-gridline" paint-order="fill stroke markers" d=" M 0 314.5 L 400 314.5" stroke-opacity="0.2" stroke-miterlimit="10" stroke-dasharray=""/><path fill="none" stroke="rgb(0,0,0)" class="dcg-svg-minor-gridline" paint-order="fill stroke markers" d=" M 0 285.5 L 400 285.5" stroke-opacity="0.2" stroke-miterlimit="10" stroke-dasharray=""/><path fill="none" stroke="rgb(0,0,0)" class="dcg-svg-minor-gridline" paint-order="fill stroke markers" d=" M 0 257.5 L 400 257.5" stroke-opacity="0.2" stroke-miterlimit="10" stroke-dasharray=""/><path fill="none" stroke="rgb(0,0,0)" class="dcg-svg-minor-gridline" paint-order="fill stroke markers" d=" M 0 228.5 L 400 228.5" stroke-opacity="0.2" stroke-miterlimit="10" stroke-dasharray=""/><path fill="none" stroke="rgb(0,0,0)" class="dcg-svg-minor-gridline" paint-order="fill stroke markers" d=" M 0 200.5 L 400 200.5" stroke-opacity="0.2" stroke-miterlimit="10" stroke-dasharray=""/><path fill="none" stroke="rgb(0,0,0)" class="dcg-svg-minor-gridline" paint-order="fill stroke markers" d=" M 0 171.5 L 400 171.5" stroke-opacity="0.2" stroke-miterlimit="10" stroke-dasharray=""/><path fill="none" stroke="rgb(0,0,0)" class="dcg-svg-minor-gridline" paint-order="fill stroke markers" d=" M 0 142.5 L 400 142.5" stroke-opacity="0.2" stroke-miterlimit="10" stroke-dasharray=""/><path fill="none" stroke="rgb(0,0,0)" class="dcg-svg-minor-gridline" paint-order="fill stroke markers" d=" M 0 114.5 L 400 114.5" stroke-opacity="0.2" stroke-miterlimit="10" stroke-dasharray=""/><path fill="none" stroke="rgb(0,0,0)" class="dcg-svg-minor-gridline" paint-order="fill stroke markers" d=" M 0 85.5 L 400 85.5" stroke-opacity="0.2" stroke-miterlimit="10" stroke-dasharray=""/><path fill="none" stroke="rgb(0,0,0)" class="dcg-svg-minor-gridline" paint-order="fill stroke markers" d=" M 0 57.5 L 400 57.5" stroke-opacity="0.2" stroke-miterlimit="10" stroke-dasharray=""/><path fill="none" stroke="rgb(0,0,0)" class="dcg-svg-minor-gridline" paint-order="fill stroke markers" d=" M 0 28.5 L 400 28.5" stroke-opacity="0.2" stroke-miterlimit="10" stroke-dasharray=""/><path fill="none" stroke="rgb(0,0,0)" class="dcg-svg-major-gridline" paint-order="fill stroke markers" d=" M 33.5 0 L 33.5 400" stroke-opacity="0.2500000000000001" stroke-miterlimit="10" stroke-dasharray=""/><path fill="none" stroke="rgb(0,0,0)" class="dcg-svg-major-gridline" paint-order="fill stroke markers" d=" M 116.5 0 L 116.5 400" stroke-opacity="0.2500000000000001" stroke-miterlimit="10" stroke-dasharray=""/><path fill="none" stroke="rgb(0,0,0)" class="dcg-svg-major-gridline" paint-order="fill stroke markers" d=" M 200.5 0 L 200.5 400" stroke-opacity="0.2500000000000001" stroke-miterlimit="10" stroke-dasharray=""/><path fill="none" stroke="rgb(0,0,0)" class="dcg-svg-major-gridline" paint-order="fill stroke markers" d=" M 283.5 0 L 283.5 400" stroke-opacity="0.2500000000000001" stroke-miterlimit="10" stroke-dasharray=""/><path fill="none" stroke="rgb(0,0,0)" class="dcg-svg-major-gridline" paint-order="fill stroke markers" d=" M 366.5 0 L 366.5 400" stroke-opacity="0.2500000000000001" stroke-miterlimit="10" stroke-dasharray=""/><path fill="none" stroke="rgb(0,0,0)" class="dcg-svg-major-gridline" paint-order="fill stroke markers" d=" M 0 257.5 L 400 257.5" stroke-opacity="0.2500000000000001" stroke-miterlimit="10" stroke-dasharray=""/><path fill="none" stroke="rgb(0,0,0)" class="dcg-svg-major-gridline" paint-order="fill stroke markers" d=" M 0 114.5 L 400 114.5" stroke-opacity="0.2500000000000001" stroke-miterlimit="10" stroke-dasharray=""/></g></g><g id="axis-f3c0efd1"><g id="yaxis-f3c0efd1"><title>Y axis</title><g><path fill="none" stroke="rgb(0,0,0)" class="dcg-svg-axis-line" paint-order="fill stroke markers" d=" M -50 0 L -50 400" stroke-opacity="0.9" stroke-miterlimit="10" stroke-width="1.5" stroke-dasharray=""/></g></g><g id="xaxis-f3c0efd1"><title>X axis</title><g><path fill="none" stroke="rgb(0,0,0)" class="dcg-svg-axis-line" paint-order="fill stroke markers" d=" M 0 400 L 400 400" stroke-opacity="0.9" stroke-miterlimit="10" stroke-width="1.5" stroke-dasharray=""/></g></g><g><g class="dcg-svg-axis-value"><text fill="none" stroke="#ffffff" font-family="Arial" font-size="14px" font-style="normal" font-weight="normal" text-decoration="normal" x="-58.90000009536746" y="415.808" text-anchor="middle" stroke-miterlimit="2" stroke-width="3" stroke-dasharray="">0</text><text fill="#000000" stroke="none" font-family="Arial" font-size="14px" font-style="normal" font-weight="normal" text-decoration="normal" x="-58.90000009536746" y="415.808" text-anchor="middle">0</text></g><g class="dcg-svg-axis-value"><text fill="none" stroke="#ffffff" font-family="Arial" font-size="14px" font-style="normal" font-weight="normal" text-decoration="normal" x="33.333333333333314" y="393.808" text-anchor="middle" stroke-miterlimit="2" stroke-width="3" stroke-dasharray="">10</text><text fill="rgb(150,150,150)" stroke="none" font-family="Arial" font-size="14px" font-style="normal" font-weight="normal" text-decoration="normal" x="33.333333333333314" y="393.808" text-anchor="middle" fill-opacity="1">10</text></g><g class="dcg-svg-axis-value"><text fill="none" stroke="#ffffff" font-family="Arial" font-size="14px" font-style="normal" font-weight="normal" text-decoration="normal" x="116.66666666666666" y="393.808" text-anchor="middle" stroke-miterlimit="2" stroke-width="3" stroke-dasharray="">20</text><text fill="rgb(150,150,150)" stroke="none" font-family="Arial" font-size="14px" font-style="normal" font-weight="normal" text-decoration="normal" x="116.66666666666666" y="393.808" text-anchor="middle" fill-opacity="1">20</text></g><g class="dcg-svg-axis-value"><text fill="none" stroke="#ffffff" font-family="Arial" font-size="14px" font-style="normal" font-weight="normal" text-decoration="normal" x="200" y="393.808" text-anchor="middle" stroke-miterlimit="2" stroke-width="3" stroke-dasharray="">30</text><text fill="rgb(150,150,150)" stroke="none" font-family="Arial" font-size="14px" font-style="normal" font-weight="normal" text-decoration="normal" x="200" y="393.808" text-anchor="middle" fill-opacity="1">30</text></g><g class="dcg-svg-axis-value"><text fill="none" stroke="#ffffff" font-family="Arial" font-size="14px" font-style="normal" font-weight="normal" text-decoration="normal" x="283.33333333333337" y="393.808" text-anchor="middle" stroke-miterlimit="2" stroke-width="3" stroke-dasharray="">40</text><text fill="rgb(150,150,150)" stroke="none" font-family="Arial" font-size="14px" font-style="normal" font-weight="normal" text-decoration="normal" x="283.33333333333337" y="393.808" text-anchor="middle" fill-opacity="1">40</text></g><g class="dcg-svg-axis-value"><text fill="none" stroke="#ffffff" font-family="Arial" font-size="14px" font-style="normal" font-weight="normal" text-decoration="normal" x="366.66666666666663" y="393.808" text-anchor="middle" stroke-miterlimit="2" stroke-width="3" stroke-dasharray="">50</text><text fill="rgb(150,150,150)" stroke="none" font-family="Arial" font-size="14px" font-style="normal" font-weight="normal" text-decoration="normal" x="366.66666666666663" y="393.808" text-anchor="middle" fill-opacity="1">50</text></g><g class="dcg-svg-axis-value"><text fill="none" stroke="#ffffff" font-family="Arial" font-size="14px" font-style="normal" font-weight="normal" text-decoration="normal" x="6.900000095367432" y="260.9508571428571" text-anchor="middle" stroke-miterlimit="2" stroke-width="3" stroke-dasharray="">5</text><text fill="rgb(150,150,150)" stroke="none" font-family="Arial" font-size="14px" font-style="normal" font-weight="normal" text-decoration="normal" x="6.900000095367432" y="260.9508571428571" text-anchor="middle" fill-opacity="1">5</text></g><g class="dcg-svg-axis-value"><text fill="none" stroke="#ffffff" font-family="Arial" font-size="14px" font-style="normal" font-weight="normal" text-decoration="normal" x="10.800000190734863" y="118.09371428571428" text-anchor="middle" stroke-miterlimit="2" stroke-width="3" stroke-dasharray="">10</text><text fill="rgb(150,150,150)" stroke="none" font-family="Arial" font-size="14px" font-style="normal" font-weight="normal" text-decoration="normal" x="10.800000190734863" y="118.09371428571428" text-anchor="middle" fill-opacity="1">10</text></g></g></g></g><g id="expressions-f3c0efd1"><g id="sketch-f3c0efd1"><title>Expression 1</title><path fill="#2d70b3" stroke="none" paint-order="stroke fill markers" d="" fill-opacity="0.4"/><g><path fill="none" stroke="#2d70b3" class="dcg-svg-curve" paint-order="fill stroke markers" d=" M -2.842170943040401e-14 400 L -2.842170943040401e-14 400 L 0.6835937499999787 399.86165916228373 L 1.3671874999999787 399.446891788193 L 2.1484374999999787 398.63539472393734 L 3.1249999999999787 397.1177864779318 L 4.101562499999979 395.04644216804894 L 5.175781249999979 392.13772389981204 L 6.347656249999979 388.22671673024604 L 7.617187499999979 383.1447860781815 L 8.984374999999979 376.7249370040238 L 10.449218749999979 368.80837332038186 L 12.109374999999979 358.6187908113084 L 13.867187499999979 346.5339867872219 L 15.820312499999972 331.710197061665 L 18.06640624999997 313.10731488404485 L 20.80078124999997 288.68187077353303 L 24.41406249999997 254.42351293456537 L 33.88671874999997 163.69470942142286 L 36.91406249999997 137.0895444093752 L 39.55078124999997 115.62881941891072 L 41.89453124999997 98.10172679299188 L 44.14062499999997 82.78814804550257 L 46.19140624999997 70.12702650202232 L 48.14453124999997 59.25772998387879 L 50.097656249999986 49.54121689552454 L 51.953124999999986 41.354395447871866 L 53.710937499999986 34.503019255000765 L 55.468749999999986 28.49006837158919 L 57.226562499999986 23.26665967942887 L 58.886718749999986 19.00885742063707 L 60.546874999999986 15.356146967015661 L 62.304687499999986 12.089786937148176 L 64.06249999999999 9.379314334480455 L 65.91796874999999 7.0509531857330785 L 67.77343749999999 5.197659615108364 L 69.62890624999999 3.7491963134653474 L 71.48437499999999 2.6396837827116997 L 73.53515624999999 1.7350262034906336 L 75.78124999999999 1.0484080580785076 L 78.32031249999997 0.5553107397645931 L 81.44531249999997 0.22516669978415393 L 85.83984374999997 0.04609626683918577 L 95.11718749999997 0.00008095509667782608 L 116.79687499999997 0.12584812300775639 L 120.70312499999997 0.42550212084967143 L 123.53515624999997 0.8901308826739296 L 125.87890624999997 1.5285854723606462 L 127.92968749999997 2.349862221635078 L 129.78515624999997 3.365188527534258 L 131.54296874999997 4.620517781214801 L 133.30078124999997 6.216856910053366 L 135.05859374999997 8.212592276929684 L 136.81640624999997 10.669061609251344 L 138.57421874999997 13.649484418837233 L 140.23437499999997 17.002984823886948 L 141.89453124999997 20.934026444264532 L 143.55468749999997 25.49410141394054 L 145.21484374999997 30.731775624097565 L 146.87499999999997 36.69144862364584 L 148.63281249999997 43.83185729591264 L 150.390625 51.86341173959016 L 152.24609375 61.33884377987442 L 154.19921875 72.44022158141485 L 156.25 85.34384252693246 L 158.3984375 100.20803045317984 L 160.64453125 117.15749788888854 L 163.18359375 137.91703285445107 L 166.015625 162.80815936205138 L 169.43359375 194.71628991441557 L 176.66015625 264.7695942129563 L 180.2734375 298.47498951689397 L 183.0078125 322.1928988608075 L 185.25390625 340.0339257772455 L 187.20703125 354.07042346510013 L 188.96484375 365.35497162647073 L 190.625 374.7164499245255 L 192.08984375 381.8503845876997 L 193.45703125 387.5013925014864 L 194.7265625 391.84097046725924 L 195.80078125 394.80913345264685 L 196.875 397.1177864779318 L 197.8515625 398.63539472393734 L 198.73046875 399.523044868529 L 199.51171875 399.9294126250826 L 200.1953125 399.9887052758714 L 200.87890625 399.77133708322515 L 201.5625 399.2777089134444 L 202.34375 398.37647550009467 L 203.3203125 396.7475975787577 L 204.296875 394.5663722234925 L 205.37109375 391.5388754845431 L 206.54296874999997 387.5013925014864 L 207.81249999999997 382.28684386704083 L 209.17968749999997 375.7301844723653 L 210.64453124999997 367.6749902268913 L 212.30468749999997 357.3395347952903 L 214.16015624999997 344.3996395703999 L 216.21093749999997 328.5862628660014 L 218.55468749999997 308.8736393093733 L 221.38671874999997 283.24919911646657 L 225.29296874999997 245.8966546828695 L 233.10546874999997 170.84661642419368 L 236.23046874999997 142.9276706555251 L 238.96484374999997 120.24511605147364 L 241.40624999999997 101.62590773962967 L 243.65234374999997 85.98990725879037 L 245.80078124999997 72.44022158141496 L 247.85156249999997 60.814229325577344 L 249.80468749999997 50.92604160995813 L 251.66015624999997 42.58081753805618 L 253.41796874999997 35.585476815718835 L 255.17578124999997 29.435992115346323 L 256.93359375 24.084670021687373 L 258.59375 19.714800760329467 L 260.25390625 15.959069167323946 L 261.9140625 12.765353124249202 L 263.671875 9.936875752854291 L 265.52734375 7.499233271646915 L 267.3828125 5.551886855136331 L 269.23828125 4.023833726925375 L 271.09375 2.8481852196817954 L 273.046875 1.923607346714391 L 275.1953125 1.2014719303215315 L 277.63671875 0.6640164303383358 L 280.56640625 0.29478256102714795 L 284.5703125 0.07644696657132499 L 291.69921875 0.0019324371762650117 L 316.11328125 0.09862824081051258 L 320.3125 0.381061808866491 L 323.2421875 0.8285052529634527 L 325.68359375 1.4643339354709042 L 327.734375 2.259104752661301 L 329.6875 3.304330428371827 L 331.4453125 4.5423532246445575 L 333.203125 6.118247407183389 L 334.9609375 8.09020770121191 L 336.71875 10.519434267950885 L 338.4765625 13.469073124785268 L 340.13671875 16.790246843205125 L 341.796875 20.685867608612284 L 343.45703125 25.20756181866426 L 345.1171875 30.404101544607613 L 346.77734375 36.320166135912075 L 348.53515625 43.41209878520999 L 350.29296875 51.39330856471224 L 352.1484375 60.81422932557717 L 354.1015625 71.85756781776689 L 356.15234375 84.70063054681748 L 358.30078125 99.50318723702878 L 360.546875 116.3918888889931 L 362.98828125 136.2642716752648 L 365.8203125 161.04022776407945 L 369.140625 191.92083737923357 L 374.8046875 246.84611786478337 L 379.296875 289.5814115003848 L 382.2265625 315.6172621176069 L 384.5703125 334.78332465097026 L 386.62109375 350.0170202497899 L 388.4765625 362.3568438999114 L 390.13671875 372.1000484503564 L 391.6015625 379.5938563331509 L 392.96875 385.597676711815 L 394.23828125 390.2773084523102 L 395.41015625 393.80546534763613 L 396.484375 396.35530819558767 L 397.4609375 398.0952111162611 L 398.4375 399.2777089134444 L 399.21875 399.81931842940975 L 399.90234375 399.99717629239007 L 400 400" stroke-linecap="round" stroke-linejoin="round" stroke-miterlimit="10" stroke-width="2.5" stroke-dasharray=""/></g></g><g id="sketch-f3c0efd1"><title/><path fill="#c74440" stroke="none" paint-order="stroke fill markers" d="" fill-opacity="0.4"/><g><path fill="none" stroke="#c74440" class="dcg-svg-curve" paint-order="fill stroke markers" d=" M -2.842170943040401e-14 228.57142857142856 L -2.842170943040401e-14 228.57142857142856 L 49.99999999999997 257.1428571428571 L 99.99999999999997 285.7142857142857 L 149.99999999999997 257.1428571428571 L 200 228.57142857142856 L 249.99999999999997 257.1428571428571 L 300 285.7142857142857 L 350 257.1428571428571 L 400 228.57142857142856" stroke-linecap="round" stroke-linejoin="round" stroke-miterlimit="10" stroke-width="2.5" stroke-dasharray=""/></g><path fill="none" stroke="#c74440" class="dcg-svg-point" paint-order="fill stroke markers" d=" M -3.0000000000000284 225.57142857142856 L 2.9999999999999716 231.57142857142856 M 2.9999999999999716 225.57142857142856 L -3.0000000000000284 231.57142857142856" stroke-linecap="round" stroke-linejoin="round" stroke-miterlimit="10" stroke-width="2.25" stroke-dasharray=""/><path fill="none" stroke="#c74440" class="dcg-svg-point" paint-order="fill stroke markers" d=" M 46.99999999999997 254.1428571428571 L 52.99999999999997 260.1428571428571 M 52.99999999999997 254.1428571428571 L 46.99999999999997 260.1428571428571" stroke-linecap="round" stroke-linejoin="round" stroke-miterlimit="10" stroke-width="2.25" stroke-dasharray=""/><path fill="none" stroke="#c74440" class="dcg-svg-point" paint-order="fill stroke markers" d=" M 96.99999999999997 282.7142857142857 L 102.99999999999997 288.7142857142857 M 102.99999999999997 282.7142857142857 L 96.99999999999997 288.7142857142857" stroke-linecap="round" stroke-linejoin="round" stroke-miterlimit="10" stroke-width="2.25" stroke-dasharray=""/><path fill="none" stroke="#c74440" class="dcg-svg-point" paint-order="fill stroke markers" d=" M 146.99999999999997 254.1428571428571 L 152.99999999999997 260.1428571428571 M 152.99999999999997 254.1428571428571 L 146.99999999999997 260.1428571428571" stroke-linecap="round" stroke-linejoin="round" stroke-miterlimit="10" stroke-width="2.25" stroke-dasharray=""/><path fill="none" stroke="#c74440" class="dcg-svg-point" paint-order="fill stroke markers" d=" M 197 225.57142857142856 L 203 231.57142857142856 M 203 225.57142857142856 L 197 231.57142857142856" stroke-linecap="round" stroke-linejoin="round" stroke-miterlimit="10" stroke-width="2.25" stroke-dasharray=""/><path fill="none" stroke="#c74440" class="dcg-svg-point" paint-order="fill stroke markers" d=" M 246.99999999999997 254.1428571428571 L 252.99999999999997 260.1428571428571 M 252.99999999999997 254.1428571428571 L 246.99999999999997 260.1428571428571" stroke-linecap="round" stroke-linejoin="round" stroke-miterlimit="10" stroke-width="2.25" stroke-dasharray=""/><path fill="none" stroke="#c74440" class="dcg-svg-point" paint-order="fill stroke markers" d=" M 297 282.7142857142857 L 303 288.7142857142857 M 303 282.7142857142857 L 297 288.7142857142857" stroke-linecap="round" stroke-linejoin="round" stroke-miterlimit="10" stroke-width="2.25" stroke-dasharray=""/><path fill="none" stroke="#c74440" class="dcg-svg-point" paint-order="fill stroke markers" d=" M 347 254.1428571428571 L 353 260.1428571428571 M 353 254.1428571428571 L 347 260.1428571428571" stroke-linecap="round" stroke-linejoin="round" stroke-miterlimit="10" stroke-width="2.25" stroke-dasharray=""/><path fill="none" stroke="#c74440" class="dcg-svg-point" paint-order="fill stroke markers" d=" M 397 225.57142857142856 L 403 231.57142857142856 M 403 225.57142857142856 L 397 231.57142857142856" stroke-linecap="round" stroke-linejoin="round" stroke-miterlimit="10" stroke-width="2.25" stroke-dasharray=""/></g><g id="sketch-f3c0efd1"><title>Expression 3</title><path fill="#6042a6" stroke="none" paint-order="stroke fill markers" d="" fill-opacity="0.4"/><g><path fill="none" stroke="#6042a6" class="dcg-svg-curve" paint-order="fill stroke markers" d=" M -2.842170943040401e-14 228.57142857142856 L -2.842170943040401e-14 228.57142857142856 L 3.0273437499999787 228.70054984308777 L 6.054687499999979 229.08674659686983 L 9.179687499999979 229.75132928868936 L 12.402343749999979 230.71287883478064 L 15.722656249999972 231.98654602708112 L 19.14062499999997 233.5831627775707 L 22.75390624999997 235.56567494581324 L 26.66015624999997 238.02049747581037 L 30.95703124999997 241.05144731389043 L 35.74218749999997 244.7687480327671 L 41.50390624999997 249.60700917214766 L 50.195312499999986 257.31816813283297 L 60.839843749999986 266.68570432691456 L 66.60156249999999 271.3779333420795 L 71.38671874999999 274.9274651249757 L 75.58593749999999 277.71435737032516 L 79.49218749999997 279.9867791173687 L 83.10546874999997 281.7835416031726 L 86.52343749999997 283.19160091444087 L 89.84374999999997 284.2722337312296 L 92.96874999999997 285.02006085824365 L 96.09374999999997 285.49941527424886 L 99.12109374999997 285.7033949284337 L 102.14843749999997 285.6492304755483 L 105.17578124999997 285.3374114804053 L 108.30078124999997 284.74828581272607 L 111.42578124999997 283.8933047762937 L 114.64843749999997 282.7418928501767 L 118.06640624999997 281.23452113262414 L 121.67968749999997 279.33967044780667 L 125.48828124999997 277.03363232832754 L 129.58984374999997 274.2331630570384 L 134.17968749999997 270.7656922875235 L 139.64843749999997 266.27148659474335 L 146.97265624999997 259.8560998665611 L 161.81640625 246.77840787521723 L 167.3828125 242.30411456669742 L 172.0703125 238.88215871817786 L 176.26953125 236.15031776868676 L 180.078125 233.98693719278302 L 183.69140625 232.24014038125853 L 187.109375 230.88246138028407 L 190.33203125 229.87919728259698 L 193.45703125 229.1729092765982 L 196.58203125 228.73598715848033 L 199.609375 228.57357994745303 L 202.63671875 228.66939583455556 L 205.6640625 229.02256878894488 L 208.78906249999997 229.65367416374164 L 211.91406249999997 230.5495153977433 L 215.13671874999997 231.74147554700957 L 218.55468749999997 233.28963214324625 L 222.16796874999997 235.22460251611938 L 225.97656249999997 237.56903806363712 L 230.17578124999997 240.47689563035144 L 234.86328124999997 244.06247704003206 L 240.42968749999997 248.6814031930393 L 248.24218749999997 255.5658501614374 L 261.1328125 266.9331633517712 L 266.796875 271.529668106449 L 271.58203125 275.0643375855756 L 275.78125 277.83563094147047 L 279.6875 280.0916437565898 L 283.30078125 281.8718178311591 L 286.71875 283.2631358772437 L 289.94140625 284.2996021128423 L 293.06640625 285.0391351808578 L 296.19140625 285.5100118417104 L 299.21875 285.70568053417725 L 302.24609375 285.6431844611515 L 305.2734375 285.3230884927028 L 308.3984375 284.72555547707685 L 311.5234375 283.86238599825566 L 314.74609375 282.70284244661093 L 318.1640625 281.18728506962566 L 321.77734375 279.28437447413927 L 325.5859375 276.97061316827586 L 329.78515625 274.09235128685145 L 334.47265625 270.5339663438808 L 339.94140625 266.02191864998895 L 347.36328125 259.5068647014108 L 361.5234375 247.0238992737003 L 367.08984375 242.529461416058 L 371.77734375 239.08517897314832 L 375.9765625 236.32958884433646 L 379.78515625 234.14196196734392 L 383.3984375 232.37010727098024 L 386.81640625 230.9871795403352 L 390.0390625 229.9589994008855 L 393.1640625 229.2277673526356 L 396.2890625 228.76537287900587 L 399.31640625 228.57801698996528 L 400 228.57142857142856" stroke-linecap="round" stroke-linejoin="round" stroke-miterlimit="10" stroke-width="2.5" stroke-dasharray=""/></g></g></g><g id="labels-f3c0efd1"/><g id="labels-f3c0efd1"/></g></svg>