<svg version="1.1" xmlns="http://www.w3.org/2000/svg" viewBox="0 0 558.799142868387 491.9415443360195" width="558.799142868387" height="491.9415443360195" filter="invert(93%) hue-rotate(180deg)" class="excalidraw-svg">
  <!-- svg-source:excalidraw -->
  
  <defs>
    <style class="style-fonts">
      @font-face {
        font-family: "Virgil";
        src: url("https://excalidraw.com/Virgil.woff2");
      }
      @font-face {
        font-family: "Cascadia";
        src: url("https://excalidraw.com/Cascadia.woff2");
      }
      @font-face {
        font-family: "Assistant";
        src: url("https://excalidraw.com/Assistant-Regular.woff2");
      }
    </style>
    
  </defs>
  <rect x="0" y="0" width="558.799142868387" height="491.9415443360195" fill="#ffffff"/><g stroke-linecap="round" transform="translate(217.43124418734092 63.04393767885401) rotate(0 43 43)"><path d="M86 43 C86 45.04, 85.85 47.1, 85.56 49.12 C85.27 51.14, 84.83 53.16, 84.26 55.11 C83.68 57.07, 82.96 59.01, 82.11 60.86 C81.27 62.72, 80.28 64.53, 79.17 66.25 C78.07 67.96, 76.83 69.62, 75.5 71.16 C74.16 72.7, 72.7 74.16, 71.16 75.5 C69.62 76.83, 67.96 78.07, 66.25 79.17 C64.53 80.28, 62.72 81.27, 60.86 82.11 C59.01 82.96, 57.07 83.68, 55.11 84.26 C53.16 84.83, 51.14 85.27, 49.12 85.56 C47.1 85.85, 45.04 86, 43 86 C40.96 86, 38.9 85.85, 36.88 85.56 C34.86 85.27, 32.84 84.83, 30.89 84.26 C28.93 83.68, 26.99 82.96, 25.14 82.11 C23.28 81.27, 21.47 80.28, 19.75 79.17 C18.04 78.07, 16.38 76.83, 14.84 75.5 C13.3 74.16, 11.84 72.7, 10.5 71.16 C9.17 69.62, 7.93 67.96, 6.83 66.25 C5.72 64.53, 4.73 62.72, 3.89 60.86 C3.04 59.01, 2.32 57.07, 1.74 55.11 C1.17 53.16, 0.73 51.14, 0.44 49.12 C0.15 47.1, 0 45.04, 0 43 C0 40.96, 0.15 38.9, 0.44 36.88 C0.73 34.86, 1.17 32.84, 1.74 30.89 C2.32 28.93, 3.04 26.99, 3.89 25.14 C4.73 23.28, 5.72 21.47, 6.83 19.75 C7.93 18.04, 9.17 16.38, 10.5 14.84 C11.84 13.3, 13.3 11.84, 14.84 10.5 C16.38 9.17, 18.04 7.93, 19.75 6.83 C21.47 5.72, 23.28 4.73, 25.14 3.89 C26.99 3.04, 28.93 2.32, 30.89 1.74 C32.84 1.17, 34.86 0.73, 36.88 0.44 C38.9 0.15, 40.96 0, 43 0 C45.04 0, 47.1 0.15, 49.12 0.44 C51.14 0.73, 53.16 1.17, 55.11 1.74 C57.07 2.32, 59.01 3.04, 60.86 3.89 C62.72 4.73, 64.53 5.72, 66.25 6.83 C67.96 7.93, 69.62 9.17, 71.16 10.5 C72.7 11.84, 74.16 13.3, 75.5 14.84 C76.83 16.38, 78.07 18.04, 79.17 19.75 C80.28 21.47, 81.27 23.28, 82.11 25.14 C82.96 26.99, 83.68 28.93, 84.26 30.89 C84.83 32.84, 85.27 34.86, 85.56 36.88 C85.85 38.9, 85.93 41.98, 86 43 C86.07 44.02, 86.07 41.98, 86 43" stroke="#1e1e1e" stroke-width="2" fill="none"/></g><g stroke-linecap="round"><g transform="translate(258.4312441873409 149.68904685548975) rotate(0 0 8.025453567504883)"><path d="M0 0 C0 2.68, 0 13.38, 0 16.05 M0 0 C0 2.68, 0 13.38, 0 16.05" stroke="#1e1e1e" stroke-width="2" fill="none"/></g></g><mask/><g stroke-linecap="round"><g transform="translate(258.6046293367333 166.1637501915658) rotate(0 -21.92609426976123 12.659036428923756)"><path d="M0 0 C-7.31 4.22, -36.54 21.1, -43.85 25.32 M0 0 C-7.31 4.22, -36.54 21.1, -43.85 25.32" stroke="#1e1e1e" stroke-width="2" fill="none"/></g></g><mask/><g stroke-linecap="round"><g transform="translate(297.6606450817549 188.76555069706032) rotate(0 -19.526918296702284 -11.27387153504489)"><path d="M0 0 C-6.51 -3.76, -32.54 -18.79, -39.05 -22.55 M0 0 C-6.51 -3.76, -32.54 -18.79, -39.05 -22.55" stroke="#1e1e1e" stroke-width="2" fill="none"/></g></g><mask/><g stroke-linecap="round"><g transform="translate(214.74521692883846 191.45055371411766) rotate(0 0 59.50744356744224)"><path d="M0 0 C0 19.84, 0 99.18, 0 119.01 M0 0 C0 19.84, 0 99.18, 0 119.01" stroke="#1e1e1e" stroke-width="2" fill="none"/></g></g><mask/><g stroke-linecap="round"><g transform="translate(297.72881214954265 188.78818653910767) rotate(0 0 61.06877784981213)"><path d="M0 0 C0 20.36, 0 101.78, 0 122.14 M0 0 C0 20.36, 0 101.78, 0 122.14" stroke="#1e1e1e" stroke-width="2" fill="none"/></g></g><mask/><g stroke-linecap="round"><g transform="translate(215.1211614546945 310.77234182901384) rotate(0 40.81202773707198 0)"><path d="M0 0 C13.6 0, 68.02 0, 81.62 0 M0 0 C13.6 0, 68.02 0, 81.62 0" stroke="#1e1e1e" stroke-width="2" fill="none"/></g></g><mask/><g transform="translate(337.53677694259727 391.39810725089535) rotate(0 69.609375 9.200000000000003)"><text x="0" y="0" font-family="Helvetica, Segoe UI Emoji" font-size="16px" fill="#1e1e1e" text-anchor="start" style="white-space: pre;" direction="ltr" dominant-baseline="text-before-edge">le genou = das knie</text></g><g transform="translate(333.1940964538617 463.54154433601946) rotate(0 60.69921875 9.200000000000003)"><text x="0" y="0" font-family="Helvetica, Segoe UI Emoji" font-size="16px" fill="#1e1e1e" text-anchor="start" style="white-space: pre;" direction="ltr" dominant-baseline="text-before-edge">le pied = der Fuß</text></g><g transform="translate(363.3277755305626 243.74849583338417) rotate(0 61.578125 9.2)"><text x="0" y="0" font-family="Helvetica, Segoe UI Emoji" font-size="16px" fill="#1e1e1e" text-anchor="start" style="white-space: pre;" direction="ltr" dominant-baseline="text-before-edge">le bras = der Arm</text></g><g transform="translate(56.19252570431715 108.87726368930291) rotate(0 61.15234375 9.200000000000003)"><text x="0" y="0" font-family="Helvetica, Segoe UI Emoji" font-size="16px" fill="#1e1e1e" text-anchor="start" style="white-space: pre;" direction="ltr" dominant-baseline="text-before-edge">la tête = der Kopf</text></g><g transform="translate(68.83242096342056 158.0137744828041) rotate(0 68.015625 9.200000000000003)"><text x="0" y="0" font-family="Helvetica, Segoe UI Emoji" font-size="16px" fill="#1e1e1e" text-anchor="start" style="white-space: pre;" direction="ltr" dominant-baseline="text-before-edge">l'epanle = Schulter </text></g><g transform="translate(333.8455903932373 292.3183044442344) rotate(0 76.26953125 9.2)"><text x="0" y="0" font-family="Helvetica, Segoe UI Emoji" font-size="16px" fill="#1e1e1e" text-anchor="start" style="white-space: pre;" direction="ltr" dominant-baseline="text-before-edge">le vontre = der Bauch</text></g><g stroke-linecap="round" transform="translate(239.06084082015192 80.65700653895775) rotate(0 6.417873780521369 6.4178737805213615)"><path d="M12.84 6.42 C12.84 6.79, 12.8 7.17, 12.74 7.53 C12.67 7.9, 12.58 8.26, 12.45 8.61 C12.32 8.96, 12.16 9.31, 11.98 9.63 C11.79 9.95, 11.57 10.26, 11.33 10.54 C11.1 10.83, 10.83 11.1, 10.54 11.33 C10.26 11.57, 9.95 11.79, 9.63 11.98 C9.31 12.16, 8.96 12.32, 8.61 12.45 C8.26 12.58, 7.9 12.67, 7.53 12.74 C7.17 12.8, 6.79 12.84, 6.42 12.84 C6.05 12.84, 5.67 12.8, 5.3 12.74 C4.94 12.67, 4.57 12.58, 4.22 12.45 C3.87 12.32, 3.53 12.16, 3.21 11.98 C2.89 11.79, 2.58 11.57, 2.29 11.33 C2.01 11.1, 1.74 10.83, 1.5 10.54 C1.26 10.26, 1.05 9.95, 0.86 9.63 C0.67 9.31, 0.51 8.96, 0.39 8.61 C0.26 8.26, 0.16 7.9, 0.1 7.53 C0.03 7.17, 0 6.79, 0 6.42 C0 6.05, 0.03 5.67, 0.1 5.3 C0.16 4.94, 0.26 4.57, 0.39 4.22 C0.51 3.87, 0.67 3.53, 0.86 3.21 C1.05 2.89, 1.26 2.58, 1.5 2.29 C1.74 2.01, 2.01 1.74, 2.29 1.5 C2.58 1.26, 2.89 1.05, 3.21 0.86 C3.53 0.67, 3.87 0.51, 4.22 0.39 C4.57 0.26, 4.94 0.16, 5.3 0.1 C5.67 0.03, 6.05 0, 6.42 0 C6.79 0, 7.17 0.03, 7.53 0.1 C7.9 0.16, 8.26 0.26, 8.61 0.39 C8.96 0.51, 9.31 0.67, 9.63 0.86 C9.95 1.05, 10.26 1.26, 10.54 1.5 C10.83 1.74, 11.1 2.01, 11.33 2.29 C11.57 2.58, 11.79 2.89, 11.98 3.21 C12.16 3.53, 12.32 3.87, 12.45 4.22 C12.58 4.57, 12.67 4.94, 12.74 5.3 C12.8 5.67, 12.82 6.23, 12.84 6.42 C12.85 6.6, 12.85 6.23, 12.84 6.42" stroke="#1e1e1e" stroke-width="2" fill="none"/></g><g stroke-linecap="round" transform="translate(272.05626213166977 80.657006178854) rotate(0 6.417874000000001 6.417873999999998)"><path d="M12.84 6.42 C12.84 6.79, 12.8 7.17, 12.74 7.53 C12.67 7.9, 12.58 8.26, 12.45 8.61 C12.32 8.96, 12.16 9.31, 11.98 9.63 C11.79 9.95, 11.57 10.26, 11.33 10.54 C11.1 10.83, 10.83 11.1, 10.54 11.33 C10.26 11.57, 9.95 11.79, 9.63 11.98 C9.31 12.16, 8.96 12.32, 8.61 12.45 C8.26 12.58, 7.9 12.67, 7.53 12.74 C7.17 12.8, 6.79 12.84, 6.42 12.84 C6.05 12.84, 5.67 12.8, 5.3 12.74 C4.94 12.67, 4.57 12.58, 4.22 12.45 C3.87 12.32, 3.53 12.16, 3.21 11.98 C2.89 11.79, 2.58 11.57, 2.29 11.33 C2.01 11.1, 1.74 10.83, 1.5 10.54 C1.26 10.26, 1.05 9.95, 0.86 9.63 C0.67 9.31, 0.51 8.96, 0.39 8.61 C0.26 8.26, 0.16 7.9, 0.1 7.53 C0.03 7.17, 0 6.79, 0 6.42 C0 6.05, 0.03 5.67, 0.1 5.3 C0.16 4.94, 0.26 4.57, 0.39 4.22 C0.51 3.87, 0.67 3.53, 0.86 3.21 C1.05 2.89, 1.26 2.58, 1.5 2.29 C1.74 2.01, 2.01 1.74, 2.29 1.5 C2.58 1.26, 2.89 1.05, 3.21 0.86 C3.53 0.67, 3.87 0.51, 4.22 0.39 C4.57 0.26, 4.94 0.16, 5.3 0.1 C5.67 0.03, 6.05 0, 6.42 0 C6.79 0, 7.17 0.03, 7.53 0.1 C7.9 0.16, 8.26 0.26, 8.61 0.39 C8.96 0.51, 9.31 0.67, 9.63 0.86 C9.95 1.05, 10.26 1.26, 10.54 1.5 C10.83 1.74, 11.1 2.01, 11.33 2.29 C11.57 2.58, 11.79 2.89, 11.98 3.21 C12.16 3.53, 12.32 3.87, 12.45 4.22 C12.58 4.57, 12.67 4.94, 12.74 5.3 C12.8 5.67, 12.82 6.23, 12.84 6.42 C12.85 6.6, 12.85 6.23, 12.84 6.42" stroke="#1e1e1e" stroke-width="2" fill="none"/></g><g stroke-linecap="round"><g transform="translate(243.51560026780797 127.76219593535964) rotate(0 17.139498213862947 3.2466890889696316)"><path d="M0 0 C2.84 1.15, 11.35 6.93, 17.06 6.87 C22.78 6.81, 31.41 0.83, 34.28 -0.38 M0 0 C2.84 1.15, 11.35 6.93, 17.06 6.87 C22.78 6.81, 31.41 0.83, 34.28 -0.38" stroke="#1e1e1e" stroke-width="2" fill="none"/></g></g><mask/><g stroke-linecap="round"><g transform="translate(261.4856468532678 97.87437100287255) rotate(0 -2.4161407173727483 8.683005703058328)"><path d="M0 0 C-0.81 2.54, -4.83 12.36, -4.83 15.25 C-4.83 18.15, -0.81 17.01, 0 17.37 M0 0 C-0.81 2.54, -4.83 12.36, -4.83 15.25 C-4.83 18.15, -0.81 17.01, 0 17.37" stroke="#1e1e1e" stroke-width="2" fill="none"/></g></g><mask/><g stroke-linecap="round"><g transform="translate(232.03893186028736 81.82855990023037) rotate(352.8443104515461 11.401164010102665 -2.453892916081699)"><path d="M0 0 C2.03 -0.82, 8.36 -4.83, 12.16 -4.91 C15.96 -4.98, 21.03 -1.2, 22.8 -0.45 M0 0 C2.03 -0.82, 8.36 -4.83, 12.16 -4.91 C15.96 -4.98, 21.03 -1.2, 22.8 -0.45" stroke="#1e1e1e" stroke-width="2" fill="none"/></g></g><mask/><g stroke-linecap="round"><g transform="translate(294.00961221655984 82.37336594763511) rotate(17.609138429469866 -11.314856802012804 -2.435316861360377)"><path d="M0 0 C-2.01 -0.81, -8.29 -4.8, -12.06 -4.87 C-15.84 -4.95, -20.87 -1.19, -22.63 -0.45 M0 0 C-2.01 -0.81, -8.29 -4.8, -12.06 -4.87 C-15.84 -4.95, -20.87 -1.19, -22.63 -0.45" stroke="#1e1e1e" stroke-width="2" fill="none"/></g></g><mask/><g transform="translate(10 296.6864714706113) rotate(0 74.48828125 9.2)"><text x="0" y="0" font-family="Helvetica, Segoe UI Emoji" font-size="16px" fill="#1e1e1e" text-anchor="start" style="white-space: pre;" direction="ltr" dominant-baseline="text-before-edge">le doigts = die Finger</text></g><g transform="translate(41.7923563041023 131.22625330482455) rotate(0 75.3828125 9.200000000000003)"><text x="0" y="0" font-family="Helvetica, Segoe UI Emoji" font-size="16px" fill="#1e1e1e" text-anchor="start" style="white-space: pre;" direction="ltr" dominant-baseline="text-before-edge">le menton = das Kinn</text></g><g stroke-linecap="round"><g transform="translate(214.7516353703157 310.5419864003982) rotate(0 0 79.56085737150417)"><path d="M0 0 C0 26.52, 0 132.6, 0 159.12 M0 0 C0 26.52, 0 132.6, 0 159.12" stroke="#1e1e1e" stroke-width="2" fill="none"/></g></g><mask/><g stroke-linecap="round"><g transform="translate(214.79571288228303 469.653673588444) rotate(0 5.984392358085536 0)"><path d="M0 0 C1.99 0, 9.97 0, 11.97 0 M0 0 C1.99 0, 9.97 0, 11.97 0" stroke="#1e1e1e" stroke-width="2" fill="none"/></g></g><mask/><g stroke-linecap="round"><g transform="translate(285.46481839309206 469.5542166670342) rotate(0 6.1054995621984745 0)"><path d="M0 0 C2.04 0, 10.18 0, 12.21 0 M0 0 C2.04 0, 10.18 0, 12.21 0" stroke="#1e1e1e" stroke-width="2" fill="none"/></g></g><mask/><g stroke-linecap="round"><g transform="translate(297.7359724460256 310.19264997051516) rotate(0 -7.105427357601002e-15 79.62596787695401)"><path d="M0 0 C0 26.54, 0 132.71, 0 159.25 M0 0 C0 26.54, 0 132.71, 0 159.25" stroke="#1e1e1e" stroke-width="2" fill="none"/></g></g><mask/><g stroke-linecap="round"><g transform="translate(226.7560321129421 469.5653791537013) rotate(0 6.790042307536375 -70.11679382682966)"><path d="M0 0 C2.26 -23.37, 11.32 -116.86, 13.58 -140.23 M0 0 C2.26 -23.37, 11.32 -116.86, 13.58 -140.23" stroke="#1e1e1e" stroke-width="2" fill="none"/></g></g><mask/><g stroke-linecap="round"><g transform="translate(271.4732877877624 329.2862144846633) rotate(0 -15.540098652746927 0)"><path d="M0 0 C-5.18 0, -25.9 0, -31.08 0 M0 0 C-5.18 0, -25.9 0, -31.08 0" stroke="#1e1e1e" stroke-width="2" fill="none"/></g></g><mask/><g stroke-linecap="round"><g transform="translate(271.46881669923687 329.28621356136) rotate(0 6.958231175252948 70.14800696931084)"><path d="M0 0 C2.32 23.38, 11.6 116.91, 13.92 140.3 M0 0 C2.32 23.38, 11.6 116.91, 13.92 140.3" stroke="#1e1e1e" stroke-width="2" fill="none"/></g></g><mask/><g stroke-linecap="round" transform="translate(285.46481792883844 469.5542170346829) rotate(0 6.13557731768595 4.033333333333331)"><path d="M2.02 0 C4.09 0, 6.16 0, 10.25 0 M2.02 0 C4.01 0, 6.01 0, 10.25 0 M10.25 0 C11.6 0, 12.27 0.67, 12.27 2.02 M10.25 0 C11.6 0, 12.27 0.67, 12.27 2.02 M12.27 2.02 C12.27 3.45, 12.27 4.88, 12.27 6.05 M12.27 2.02 C12.27 3.47, 12.27 4.92, 12.27 6.05 M12.27 6.05 C12.27 7.39, 11.6 8.07, 10.25 8.07 M12.27 6.05 C12.27 7.39, 11.6 8.07, 10.25 8.07 M10.25 8.07 C8 8.07, 5.74 8.07, 2.02 8.07 M10.25 8.07 C8.34 8.07, 6.42 8.07, 2.02 8.07 M2.02 8.07 C0.67 8.07, 0 7.39, 0 6.05 M2.02 8.07 C0.67 8.07, 0 7.39, 0 6.05 M0 6.05 C0 5.14, 0 4.23, 0 2.02 M0 6.05 C0 5.21, 0 4.38, 0 2.02 M0 2.02 C0 0.67, 0.67 0, 2.02 0 M0 2.02 C0 0.67, 0.67 0, 2.02 0" stroke="#1e1e1e" stroke-width="2" fill="none"/></g><g stroke-linecap="round" transform="translate(278.4270479288384 390.1028440173683) rotate(0 9.650882 9.74910030482971)"><path d="M19.3 9.75 C19.3 10.31, 19.25 10.89, 19.16 11.44 C19.06 12, 18.91 12.55, 18.72 13.08 C18.53 13.61, 18.29 14.13, 18.01 14.62 C17.73 15.11, 17.4 15.58, 17.04 16.02 C16.68 16.45, 16.28 16.85, 15.85 17.22 C15.43 17.58, 14.96 17.91, 14.48 18.19 C13.99 18.47, 13.48 18.72, 12.95 18.91 C12.43 19.1, 11.88 19.25, 11.33 19.35 C10.78 19.45, 10.21 19.5, 9.65 19.5 C9.09 19.5, 8.53 19.45, 7.98 19.35 C7.42 19.25, 6.88 19.1, 6.35 18.91 C5.83 18.72, 5.31 18.47, 4.83 18.19 C4.34 17.91, 3.88 17.58, 3.45 17.22 C3.02 16.85, 2.62 16.45, 2.26 16.02 C1.9 15.58, 1.57 15.11, 1.29 14.62 C1.01 14.13, 0.77 13.61, 0.58 13.08 C0.39 12.55, 0.24 12, 0.15 11.44 C0.05 10.89, 0 10.31, 0 9.75 C0 9.18, 0.05 8.61, 0.15 8.06 C0.24 7.5, 0.39 6.94, 0.58 6.41 C0.77 5.88, 1.01 5.36, 1.29 4.87 C1.57 4.39, 1.9 3.91, 2.26 3.48 C2.62 3.05, 3.02 2.64, 3.45 2.28 C3.88 1.92, 4.34 1.59, 4.83 1.31 C5.31 1.02, 5.83 0.78, 6.35 0.59 C6.88 0.39, 7.42 0.25, 7.98 0.15 C8.53 0.05, 9.09 0, 9.65 0 C10.21 0, 10.78 0.05, 11.33 0.15 C11.88 0.25, 12.43 0.39, 12.95 0.59 C13.48 0.78, 13.99 1.02, 14.48 1.31 C14.96 1.59, 15.43 1.92, 15.85 2.28 C16.28 2.64, 16.68 3.05, 17.04 3.48 C17.4 3.91, 17.73 4.39, 18.01 4.87 C18.29 5.36, 18.53 5.88, 18.72 6.41 C18.91 6.94, 19.06 7.5, 19.16 8.06 C19.25 8.61, 19.28 9.47, 19.3 9.75 C19.33 10.03, 19.33 9.47, 19.3 9.75" stroke="#1e1e1e" stroke-width="2" fill="none"/></g><g stroke-linecap="round" transform="translate(214.74521713826593 390.10284401736834) rotate(0 9.400428395286257 9.583541216617625)"><path d="M18.8 9.58 C18.8 10.14, 18.75 10.7, 18.66 11.25 C18.56 11.79, 18.42 12.34, 18.23 12.86 C18.05 13.38, 17.81 13.89, 17.54 14.38 C17.27 14.86, 16.95 15.32, 16.6 15.74 C16.25 16.17, 15.86 16.57, 15.44 16.92 C15.03 17.28, 14.57 17.61, 14.1 17.88 C13.63 18.16, 13.13 18.4, 12.62 18.59 C12.1 18.78, 11.57 18.93, 11.03 19.02 C10.5 19.12, 9.94 19.17, 9.4 19.17 C8.86 19.17, 8.3 19.12, 7.77 19.02 C7.23 18.93, 6.7 18.78, 6.19 18.59 C5.67 18.4, 5.17 18.16, 4.7 17.88 C4.23 17.61, 3.77 17.28, 3.36 16.92 C2.94 16.57, 2.55 16.17, 2.2 15.74 C1.85 15.32, 1.53 14.86, 1.26 14.38 C0.99 13.89, 0.75 13.38, 0.57 12.86 C0.38 12.34, 0.24 11.79, 0.14 11.25 C0.05 10.7, 0 10.14, 0 9.58 C0 9.03, 0.05 8.47, 0.14 7.92 C0.24 7.37, 0.38 6.83, 0.57 6.31 C0.75 5.78, 0.99 5.27, 1.26 4.79 C1.53 4.31, 1.85 3.85, 2.2 3.42 C2.55 3, 2.94 2.6, 3.36 2.24 C3.77 1.89, 4.23 1.56, 4.7 1.28 C5.17 1.01, 5.67 0.77, 6.19 0.58 C6.7 0.39, 7.23 0.24, 7.77 0.15 C8.3 0.05, 8.86 0, 9.4 0 C9.94 0, 10.5 0.05, 11.03 0.15 C11.57 0.24, 12.1 0.39, 12.62 0.58 C13.13 0.77, 13.63 1.01, 14.1 1.28 C14.57 1.56, 15.03 1.89, 15.44 2.24 C15.86 2.6, 16.25 3, 16.6 3.42 C16.95 3.85, 17.27 4.31, 17.54 4.79 C17.81 5.27, 18.05 5.78, 18.23 6.31 C18.42 6.83, 18.56 7.37, 18.66 7.92 C18.75 8.47, 18.78 9.31, 18.8 9.58 C18.82 9.86, 18.82 9.31, 18.8 9.58" stroke="#1e1e1e" stroke-width="2" fill="none"/></g><g stroke-linecap="round" transform="translate(214.75163456067693 469.74196860035875) rotate(0 6.135577317685952 4.033333333333331)"><path d="M2.02 0 C5.04 0, 8.07 0, 10.25 0 M2.02 0 C4.4 0, 6.78 0, 10.25 0 M10.25 0 C11.6 0, 12.27 0.67, 12.27 2.02 M10.25 0 C11.6 0, 12.27 0.67, 12.27 2.02 M12.27 2.02 C12.27 2.99, 12.27 3.96, 12.27 6.05 M12.27 2.02 C12.27 3.07, 12.27 4.13, 12.27 6.05 M12.27 6.05 C12.27 7.39, 11.6 8.07, 10.25 8.07 M12.27 6.05 C12.27 7.39, 11.6 8.07, 10.25 8.07 M10.25 8.07 C8.13 8.07, 6.01 8.07, 2.02 8.07 M10.25 8.07 C7.09 8.07, 3.93 8.07, 2.02 8.07 M2.02 8.07 C0.67 8.07, 0 7.39, 0 6.05 M2.02 8.07 C0.67 8.07, 0 7.39, 0 6.05 M0 6.05 C0 5.16, 0 4.27, 0 2.02 M0 6.05 C0 5.03, 0 4.01, 0 2.02 M0 2.02 C0 0.67, 0.67 0, 2.02 0 M0 2.02 C0 0.67, 0.67 0, 2.02 0" stroke="#1e1e1e" stroke-width="2" fill="none"/></g><g transform="translate(41.05040315294738 344.95891033243436) rotate(0 70.48828125 9.2)"><text x="0" y="0" font-family="Helvetica, Segoe UI Emoji" font-size="16px" fill="#1e1e1e" text-anchor="start" style="white-space: pre;" direction="ltr" dominant-baseline="text-before-edge">la jambe = das Bein</text></g><g stroke-linecap="round"><g transform="translate(297.94422895202763 189.08931894548886) rotate(0 15.701719007355912 18.223676340038438)"><path d="M0 0 C5.23 6.07, 26.17 30.37, 31.4 36.45 M0 0 C5.23 6.07, 26.17 30.37, 31.4 36.45" stroke="#1e1e1e" stroke-width="2" fill="none"/></g></g><mask/><g stroke-linecap="round"><g transform="translate(297.79803782314883 209.51112245486942) rotate(0 10.011742899796943 11.116998802689892)"><path d="M0 0 C3.34 3.71, 16.69 18.53, 20.02 22.23 M0 0 C3.34 3.71, 16.69 18.53, 20.02 22.23" stroke="#1e1e1e" stroke-width="2" fill="none"/></g></g><mask/><g stroke-linecap="round" transform="translate(317.58283192748445 222.8632194384886) rotate(0 6.535427638860739 6.586052365924608)"><path d="M13.07 6.59 C13.07 6.97, 13.04 7.35, 12.97 7.73 C12.91 8.11, 12.81 8.48, 12.68 8.84 C12.55 9.2, 12.38 9.55, 12.2 9.88 C12.01 10.21, 11.79 10.53, 11.54 10.82 C11.3 11.11, 11.03 11.39, 10.74 11.63 C10.45 11.88, 10.13 12.1, 9.8 12.29 C9.48 12.48, 9.13 12.64, 8.77 12.77 C8.42 12.91, 8.04 13.01, 7.67 13.07 C7.3 13.14, 6.91 13.17, 6.54 13.17 C6.16 13.17, 5.77 13.14, 5.4 13.07 C5.03 13.01, 4.66 12.91, 4.3 12.77 C3.94 12.64, 3.6 12.48, 3.27 12.29 C2.94 12.1, 2.62 11.88, 2.33 11.63 C2.04 11.39, 1.77 11.11, 1.53 10.82 C1.29 10.53, 1.06 10.21, 0.88 9.88 C0.69 9.55, 0.52 9.2, 0.39 8.84 C0.26 8.48, 0.16 8.11, 0.1 7.73 C0.03 7.35, 0 6.97, 0 6.59 C0 6.2, 0.03 5.82, 0.1 5.44 C0.16 5.07, 0.26 4.69, 0.39 4.33 C0.52 3.98, 0.69 3.62, 0.88 3.29 C1.06 2.96, 1.29 2.64, 1.53 2.35 C1.77 2.06, 2.04 1.79, 2.33 1.54 C2.62 1.3, 2.94 1.07, 3.27 0.88 C3.6 0.69, 3.94 0.53, 4.3 0.4 C4.66 0.27, 5.03 0.17, 5.4 0.1 C5.77 0.03, 6.16 0, 6.54 0 C6.91 0, 7.3 0.03, 7.67 0.1 C8.04 0.17, 8.42 0.27, 8.77 0.4 C9.13 0.53, 9.48 0.69, 9.8 0.88 C10.13 1.07, 10.45 1.3, 10.74 1.54 C11.03 1.79, 11.3 2.06, 11.54 2.35 C11.79 2.64, 12.01 2.96, 12.2 3.29 C12.38 3.62, 12.55 3.98, 12.68 4.33 C12.81 4.69, 12.91 5.07, 12.97 5.44 C13.04 5.82, 13.05 6.4, 13.07 6.59 C13.09 6.78, 13.09 6.4, 13.07 6.59" stroke="#1e1e1e" stroke-width="2" fill="none"/></g><g stroke-linecap="round"><g transform="translate(330.62515119794136 229.94811833148916) rotate(0 0 22.587443853200767)"><path d="M0 0 C0 7.53, 0 37.65, 0 45.17 M0 0 C0 7.53, 0 37.65, 0 45.17" stroke="#1e1e1e" stroke-width="2" fill="none"/></g></g><mask/><g stroke-linecap="round"><g transform="translate(319.31479800344823 233.9672840793679) rotate(0 0 20.65715192488065)"><path d="M0 0 C0 6.89, 0 34.43, 0 41.31 M0 0 C0 6.89, 0 34.43, 0 41.31" stroke="#1e1e1e" stroke-width="2" fill="none"/></g></g><mask/><g stroke-linecap="round" transform="translate(319.3113632562564 269.20627810604196) rotate(0 5.656893836291033 5.700713265151151)"><path d="M11.31 5.7 C11.31 6.03, 11.28 6.37, 11.23 6.69 C11.17 7.02, 11.08 7.34, 10.97 7.65 C10.86 7.96, 10.72 8.27, 10.56 8.55 C10.39 8.84, 10.2 9.11, 9.99 9.37 C9.78 9.62, 9.54 9.86, 9.29 10.07 C9.04 10.28, 8.77 10.47, 8.49 10.64 C8.2 10.8, 7.9 10.94, 7.59 11.06 C7.28 11.17, 6.96 11.26, 6.64 11.31 C6.32 11.37, 5.98 11.4, 5.66 11.4 C5.33 11.4, 5 11.37, 4.67 11.31 C4.35 11.26, 4.03 11.17, 3.72 11.06 C3.41 10.94, 3.11 10.8, 2.83 10.64 C2.54 10.47, 2.27 10.28, 2.02 10.07 C1.77 9.86, 1.53 9.62, 1.32 9.37 C1.11 9.11, 0.92 8.84, 0.76 8.55 C0.59 8.27, 0.45 7.96, 0.34 7.65 C0.23 7.34, 0.14 7.02, 0.09 6.69 C0.03 6.37, 0 6.03, 0 5.7 C0 5.37, 0.03 5.04, 0.09 4.71 C0.14 4.39, 0.23 4.06, 0.34 3.75 C0.45 3.44, 0.59 3.14, 0.76 2.85 C0.92 2.56, 1.11 2.29, 1.32 2.04 C1.53 1.78, 1.77 1.55, 2.02 1.33 C2.27 1.12, 2.54 0.93, 2.83 0.76 C3.11 0.6, 3.41 0.46, 3.72 0.34 C4.03 0.23, 4.35 0.14, 4.67 0.09 C5 0.03, 5.33 0, 5.66 0 C5.98 0, 6.32 0.03, 6.64 0.09 C6.96 0.14, 7.28 0.23, 7.59 0.34 C7.9 0.46, 8.2 0.6, 8.49 0.76 C8.77 0.93, 9.04 1.12, 9.29 1.33 C9.54 1.55, 9.78 1.78, 9.99 2.04 C10.2 2.29, 10.39 2.56, 10.56 2.85 C10.72 3.14, 10.86 3.44, 10.97 3.75 C11.08 4.06, 11.17 4.39, 11.23 4.71 C11.28 5.04, 11.3 5.54, 11.31 5.7 C11.33 5.87, 11.33 5.54, 11.31 5.7" stroke="#1e1e1e" stroke-width="2" fill="none"/></g><g stroke-linecap="round"><g transform="translate(195.77499026867687 140.12036595268356) rotate(0 17.926853932176336 2.0650547517172697)"><path d="M0 0 C5.98 0.69, 29.88 3.44, 35.85 4.13 M0 0 C5.98 0.69, 29.88 3.44, 35.85 4.13" stroke="#1e1e1e" stroke-width="2" fill="none"/></g><g transform="translate(195.77499026867687 140.12036595268356) rotate(0 17.926853932176336 2.0650547517172697)"><path d="M18.3 8.32 C24.53 6.83, 30.75 5.35, 35.85 4.13 M18.3 8.32 C24.62 6.81, 30.93 5.3, 35.85 4.13" stroke="#1e1e1e" stroke-width="2" fill="none"/></g><g transform="translate(195.77499026867687 140.12036595268356) rotate(0 17.926853932176336 2.0650547517172697)"><path d="M19.71 -3.94 C25.44 -1.08, 31.16 1.78, 35.85 4.13 M19.71 -3.94 C25.52 -1.04, 31.33 1.87, 35.85 4.13" stroke="#1e1e1e" stroke-width="2" fill="none"/></g></g><mask/><g stroke-linecap="round"><g transform="translate(205.9199076510238 169.70844910893524) rotate(0 13.967673564400513 2.8505068514433063)"><path d="M0 0 C4.66 0.95, 23.28 4.75, 27.94 5.7 M0 0 C4.66 0.95, 23.28 4.75, 27.94 5.7" stroke="#1e1e1e" stroke-width="2" fill="none"/></g><g transform="translate(205.9199076510238 169.70844910893524) rotate(0 13.967673564400513 2.8505068514433063)"><path d="M13.84 7.8 C16.67 7.38, 19.5 6.96, 27.94 5.7 M13.84 7.8 C18.67 7.08, 23.5 6.36, 27.94 5.7" stroke="#1e1e1e" stroke-width="2" fill="none"/></g><g transform="translate(205.9199076510238 169.70844910893524) rotate(0 13.967673564400513 2.8505068514433063)"><path d="M15.78 -1.75 C18.22 -0.26, 20.66 1.24, 27.94 5.7 M15.78 -1.75 C19.95 0.8, 24.12 3.36, 27.94 5.7" stroke="#1e1e1e" stroke-width="2" fill="none"/></g></g><mask/><g stroke-linecap="round"><g transform="translate(332.7120083955473 399.30054844764504) rotate(0 -15.70826557939035 0)"><path d="M0 0 C-5.24 0, -26.18 0, -31.42 0 M0 0 C-5.24 0, -26.18 0, -31.42 0" stroke="#1e1e1e" stroke-width="2" fill="none"/></g><g transform="translate(332.7120083955473 399.30054844764504) rotate(0 -15.70826557939035 0)"><path d="M-16.66 -5.37 C-21.68 -3.54, -26.71 -1.71, -31.42 0 M-16.66 -5.37 C-21.37 -3.66, -26.08 -1.94, -31.42 0" stroke="#1e1e1e" stroke-width="2" fill="none"/></g><g transform="translate(332.7120083955473 399.30054844764504) rotate(0 -15.70826557939035 0)"><path d="M-16.66 5.37 C-21.68 3.54, -26.71 1.71, -31.42 0 M-16.66 5.37 C-21.37 3.66, -26.08 1.94, -31.42 0" stroke="#1e1e1e" stroke-width="2" fill="none"/></g></g><mask/><g stroke-linecap="round"><g transform="translate(328.9591586543511 472.3307498196332) rotate(0 -13.587256895331176 0)"><path d="M0 0 C-4.53 0, -22.65 0, -27.17 0 M0 0 C-4.53 0, -22.65 0, -27.17 0" stroke="#1e1e1e" stroke-width="2" fill="none"/></g><g transform="translate(328.9591586543511 472.3307498196332) rotate(0 -13.587256895331176 0)"><path d="M-14.41 -4.65 C-17.48 -3.53, -20.55 -2.41, -27.17 0 M-14.41 -4.65 C-17.75 -3.43, -21.1 -2.21, -27.17 0" stroke="#1e1e1e" stroke-width="2" fill="none"/></g><g transform="translate(328.9591586543511 472.3307498196332) rotate(0 -13.587256895331176 0)"><path d="M-14.41 4.65 C-17.48 3.53, -20.55 2.41, -27.17 0 M-14.41 4.65 C-17.75 3.43, -21.1 2.21, -27.17 0" stroke="#1e1e1e" stroke-width="2" fill="none"/></g></g><mask/><g stroke-linecap="round"><g transform="translate(331.9596184642096 298.39313402782926) rotate(0 -15.041881162853443 -0.08536496788706316)"><path d="M0 0 C-5.01 -0.03, -25.07 -0.14, -30.08 -0.17 M0 0 C-5.01 -0.03, -25.07 -0.14, -30.08 -0.17" stroke="#1e1e1e" stroke-width="2" fill="none"/></g><g transform="translate(331.9596184642096 298.39313402782926) rotate(0 -15.041881162853443 -0.08536496788706316)"><path d="M-15.92 -5.24 C-19.94 -3.8, -23.96 -2.36, -30.08 -0.17 M-15.92 -5.24 C-21.09 -3.39, -26.25 -1.54, -30.08 -0.17" stroke="#1e1e1e" stroke-width="2" fill="none"/></g><g transform="translate(331.9596184642096 298.39313402782926) rotate(0 -15.041881162853443 -0.08536496788706316)"><path d="M-15.98 5.05 C-19.98 3.57, -23.98 2.09, -30.08 -0.17 M-15.98 5.05 C-21.12 3.15, -26.27 1.24, -30.08 -0.17" stroke="#1e1e1e" stroke-width="2" fill="none"/></g></g><mask/><g stroke-linecap="round"><g transform="translate(214.5551154613552 191.53172210791277) rotate(0 -15.614684111102953 18.122662191278053)"><path d="M0 0 C-5.2 6.04, -26.02 30.2, -31.23 36.25 M0 0 C-5.2 6.04, -26.02 30.2, -31.23 36.25" stroke="#1e1e1e" stroke-width="2" fill="none"/></g></g><mask/><g stroke-linecap="round"><g transform="translate(214.7004962503133 211.8403272121439) rotate(0 -9.956247638151584 11.055377088724484)"><path d="M0 0 C-3.32 3.69, -16.59 18.43, -19.91 22.11 M0 0 C-3.32 3.69, -16.59 18.43, -19.91 22.11" stroke="#1e1e1e" stroke-width="2" fill="none"/></g></g><mask/><g stroke-linecap="round" transform="translate(182.026966293139 225.11841329446088) rotate(0 6.499201651995833 6.549545765334173)"><path d="M13 6.55 C13 6.93, 12.96 7.31, 12.9 7.69 C12.83 8.06, 12.74 8.43, 12.61 8.79 C12.48 9.15, 12.32 9.5, 12.13 9.82 C11.94 10.15, 11.72 10.47, 11.48 10.76 C11.24 11.05, 10.96 11.32, 10.68 11.57 C10.39 11.81, 10.07 12.03, 9.75 12.22 C9.42 12.41, 9.08 12.57, 8.72 12.7 C8.37 12.83, 8 12.93, 7.63 13 C7.26 13.07, 6.88 13.1, 6.5 13.1 C6.12 13.1, 5.74 13.07, 5.37 13 C5 12.93, 4.63 12.83, 4.28 12.7 C3.92 12.57, 3.58 12.41, 3.25 12.22 C2.92 12.03, 2.61 11.81, 2.32 11.57 C2.03 11.32, 1.76 11.05, 1.52 10.76 C1.28 10.47, 1.06 10.15, 0.87 9.82 C0.68 9.5, 0.52 9.15, 0.39 8.79 C0.26 8.43, 0.16 8.06, 0.1 7.69 C0.03 7.31, 0 6.93, 0 6.55 C0 6.17, 0.03 5.79, 0.1 5.41 C0.16 5.04, 0.26 4.67, 0.39 4.31 C0.52 3.95, 0.68 3.6, 0.87 3.27 C1.06 2.95, 1.28 2.63, 1.52 2.34 C1.76 2.05, 2.03 1.78, 2.32 1.53 C2.61 1.29, 2.92 1.07, 3.25 0.88 C3.58 0.69, 3.92 0.52, 4.28 0.39 C4.63 0.27, 5 0.17, 5.37 0.1 C5.74 0.03, 6.12 0, 6.5 0 C6.88 0, 7.26 0.03, 7.63 0.1 C8 0.17, 8.37 0.27, 8.72 0.39 C9.08 0.52, 9.42 0.69, 9.75 0.88 C10.07 1.07, 10.39 1.29, 10.68 1.53 C10.96 1.78, 11.24 2.05, 11.48 2.34 C11.72 2.63, 11.94 2.95, 12.13 3.27 C12.32 3.6, 12.48 3.95, 12.61 4.31 C12.74 4.67, 12.83 5.04, 12.9 5.41 C12.96 5.79, 12.98 6.36, 13 6.55 C13.01 6.74, 13.01 6.36, 13 6.55" stroke="#1e1e1e" stroke-width="2" fill="none"/></g><g stroke-linecap="round"><g transform="translate(182.05534412482862 232.1640404720635) rotate(0 0 22.46224126669021)"><path d="M0 0 C0 7.49, 0 37.44, 0 44.92 M0 0 C0 7.49, 0 37.44, 0 44.92" stroke="#1e1e1e" stroke-width="2" fill="none"/></g></g><mask/><g stroke-linecap="round"><g transform="translate(193.30300383866492 236.16092791565427) rotate(0 0 20.542648979450195)"><path d="M0 0 C0 6.85, 0 34.24, 0 41.09 M0 0 C0 6.85, 0 34.24, 0 41.09" stroke="#1e1e1e" stroke-width="2" fill="none"/></g></g><mask/><g stroke-linecap="round" transform="translate(182.05534439243993 271.2045915974321) rotate(0 5.625537577277296 5.669114114295892)"><path d="M11.25 5.67 C11.25 6, 11.22 6.33, 11.17 6.65 C11.11 6.98, 11.02 7.3, 10.91 7.61 C10.8 7.92, 10.66 8.22, 10.5 8.5 C10.33 8.79, 10.14 9.06, 9.93 9.31 C9.73 9.56, 9.49 9.8, 9.24 10.01 C8.99 10.22, 8.72 10.41, 8.44 10.58 C8.16 10.74, 7.86 10.88, 7.55 11 C7.24 11.11, 6.92 11.2, 6.6 11.25 C6.28 11.31, 5.95 11.34, 5.63 11.34 C5.3 11.34, 4.97 11.31, 4.65 11.25 C4.33 11.2, 4.01 11.11, 3.7 11 C3.4 10.88, 3.09 10.74, 2.81 10.58 C2.53 10.41, 2.26 10.22, 2.01 10.01 C1.76 9.8, 1.53 9.56, 1.32 9.31 C1.11 9.06, 0.92 8.79, 0.75 8.5 C0.59 8.22, 0.45 7.92, 0.34 7.61 C0.23 7.3, 0.14 6.98, 0.09 6.65 C0.03 6.33, 0 6, 0 5.67 C0 5.34, 0.03 5.01, 0.09 4.68 C0.14 4.36, 0.23 4.04, 0.34 3.73 C0.45 3.42, 0.59 3.12, 0.75 2.83 C0.92 2.55, 1.11 2.28, 1.32 2.03 C1.53 1.77, 1.76 1.54, 2.01 1.33 C2.26 1.12, 2.53 0.92, 2.81 0.76 C3.09 0.6, 3.4 0.45, 3.7 0.34 C4.01 0.23, 4.33 0.14, 4.65 0.09 C4.97 0.03, 5.3 0, 5.63 0 C5.95 0, 6.28 0.03, 6.6 0.09 C6.92 0.14, 7.24 0.23, 7.55 0.34 C7.86 0.45, 8.16 0.6, 8.44 0.76 C8.72 0.92, 8.99 1.12, 9.24 1.33 C9.49 1.54, 9.73 1.77, 9.93 2.03 C10.14 2.28, 10.33 2.55, 10.5 2.83 C10.66 3.12, 10.8 3.42, 10.91 3.73 C11.02 4.04, 11.11 4.36, 11.17 4.68 C11.22 5.01, 11.24 5.51, 11.25 5.67 C11.27 5.83, 11.27 5.51, 11.25 5.67" stroke="#1e1e1e" stroke-width="2" fill="none"/></g><g stroke-linecap="round"><g transform="translate(183.57694306798376 353.80307197711) rotate(0 13.399972181484408 0.17791898147739005)"><path d="M0 0 C4.47 0.06, 22.33 0.3, 26.8 0.36 M0 0 C4.47 0.06, 22.33 0.3, 26.8 0.36" stroke="#1e1e1e" stroke-width="2" fill="none"/></g><g transform="translate(183.57694306798376 353.80307197711) rotate(0 13.399972181484408 0.17791898147739005)"><path d="M14.15 4.77 C17.61 3.56, 21.08 2.35, 26.8 0.36 M14.15 4.77 C17.1 3.74, 20.04 2.71, 26.8 0.36" stroke="#1e1e1e" stroke-width="2" fill="none"/></g><g transform="translate(183.57694306798376 353.80307197711) rotate(0 13.399972181484408 0.17791898147739005)"><path d="M14.27 -4.39 C17.7 -3.09, 21.13 -1.79, 26.8 0.36 M14.27 -4.39 C17.19 -3.29, 20.11 -2.18, 26.8 0.36" stroke="#1e1e1e" stroke-width="2" fill="none"/></g></g><mask/><g transform="translate(330.5628125315628 77.86683233162822) rotate(0 75.1171875 9.200000000000003)"><text x="0" y="0" font-family="Helvetica, Segoe UI Emoji" font-size="16px" fill="#1e1e1e" text-anchor="start" style="white-space: pre;" direction="ltr" dominant-baseline="text-before-edge">l'oeil (m.) = das Auge</text></g><g transform="translate(331.1781434396495 114.17135590874554) rotate(0 62.0390625 9.200000000000003)"><text x="0" y="0" font-family="Helvetica, Segoe UI Emoji" font-size="16px" fill="#1e1e1e" text-anchor="start" style="white-space: pre;" direction="ltr" dominant-baseline="text-before-edge">le nez = die Nase</text></g><g transform="translate(323.178841634522 139.39992314030164) rotate(0 77.609375 9.200000000000003)"><text x="0" y="0" font-family="Helvetica, Segoe UI Emoji" font-size="16px" fill="#1e1e1e" text-anchor="start" style="white-space: pre;" direction="ltr" dominant-baseline="text-before-edge">la bouche = der Mund</text></g><g transform="translate(320.1021870940883 50.17694146772513) rotate(0 97.17578125 9.200000000000003)"><text x="0" y="0" font-family="Helvetica, Segoe UI Emoji" font-size="16px" fill="#1e1e1e" text-anchor="start" style="white-space: pre;" direction="ltr" dominant-baseline="text-before-edge">le sourcil = die Augenbraue</text></g><g transform="translate(309.37330301117356 10) rotate(0 83.828125 18.400000000000006)"><text x="0" y="0" font-family="Helvetica, Segoe UI Emoji" font-size="16px" fill="#1e1e1e" text-anchor="start" style="white-space: pre;" direction="ltr" dominant-baseline="text-before-edge">le cheveu = das Haar</text><text x="0" y="18.4" font-family="Helvetica, Segoe UI Emoji" font-size="16px" fill="#1e1e1e" text-anchor="start" style="white-space: pre;" direction="ltr" dominant-baseline="text-before-edge">les cheveux= die Haare</text></g><g stroke-linecap="round"><g transform="translate(318.72518836364725 148.31013190707492) rotate(0 -19.382923604732127 -7.383970897040825)"><path d="M0 0 C-6.46 -2.46, -32.3 -12.31, -38.77 -14.77 M0 0 C-6.46 -2.46, -32.3 -12.31, -38.77 -14.77" stroke="#1e1e1e" stroke-width="2" fill="none"/></g><g transform="translate(318.72518836364725 148.31013190707492) rotate(0 -19.382923604732127 -7.383970897040825)"><path d="M-18.03 -14.46 C-25.29 -14.57, -32.56 -14.68, -38.77 -14.77 M-18.03 -14.46 C-25.81 -14.57, -33.6 -14.69, -38.77 -14.77" stroke="#1e1e1e" stroke-width="2" fill="none"/></g><g transform="translate(318.72518836364725 148.31013190707492) rotate(0 -19.382923604732127 -7.383970897040825)"><path d="M-23.08 -1.2 C-28.57 -5.95, -34.07 -10.71, -38.77 -14.77 M-23.08 -1.2 C-28.97 -6.29, -34.86 -11.39, -38.77 -14.77" stroke="#1e1e1e" stroke-width="2" fill="none"/></g></g><mask/><g stroke-linecap="round"><g transform="translate(323.6478356283411 121.2355719512586) rotate(0 -26.459229047729593 -5.845643626824)"><path d="M0 0 C-8.82 -1.95, -44.1 -9.74, -52.92 -11.69 M0 0 C-8.82 -1.95, -44.1 -9.74, -52.92 -11.69" stroke="#1e1e1e" stroke-width="2" fill="none"/></g><g transform="translate(323.6478356283411 121.2355719512586) rotate(0 -26.459229047729593 -5.845643626824)"><path d="M-26.06 -15.25 C-34.41 -14.14, -42.77 -13.03, -52.92 -11.69 M-26.06 -15.25 C-36.51 -13.86, -46.96 -12.48, -52.92 -11.69" stroke="#1e1e1e" stroke-width="2" fill="none"/></g><g transform="translate(323.6478356283411 121.2355719512586) rotate(0 -26.459229047729593 -5.845643626824)"><path d="M-30.05 2.85 C-37.17 -1.67, -44.28 -6.2, -52.92 -11.69 M-30.05 2.85 C-38.95 -2.81, -47.85 -8.47, -52.92 -11.69" stroke="#1e1e1e" stroke-width="2" fill="none"/></g></g><mask/><g stroke-linecap="round"><g transform="translate(326.72449016877476 87.39237200648816) rotate(0 -18.15226178855869 2.153658178303573)"><path d="M0 0 C-6.05 0.72, -30.25 3.59, -36.3 4.31 M0 0 C-6.05 0.72, -30.25 3.59, -36.3 4.31" stroke="#1e1e1e" stroke-width="2" fill="none"/></g><g transform="translate(326.72449016877476 87.39237200648816) rotate(0 -18.15226178855869 2.153658178303573)"><path d="M-19.98 -3.92 C-25.37 -1.21, -30.77 1.51, -36.3 4.31 M-19.98 -3.92 C-23.28 -2.26, -26.58 -0.6, -36.3 4.31" stroke="#1e1e1e" stroke-width="2" fill="none"/></g><g transform="translate(326.72449016877476 87.39237200648816) rotate(0 -18.15226178855869 2.153658178303573)"><path d="M-18.51 8.49 C-24.39 7.11, -30.27 5.73, -36.3 4.31 M-18.51 8.49 C-22.11 7.65, -25.71 6.8, -36.3 4.31" stroke="#1e1e1e" stroke-width="2" fill="none"/></g></g><mask/><g stroke-linecap="round"><g transform="translate(318.72518836364725 61.54847386684534) rotate(0 -13.537279977908156 7.999301805127544)"><path d="M0 0 C-4.51 2.67, -22.56 13.33, -27.07 16 M0 0 C-4.51 2.67, -22.56 13.33, -27.07 16" stroke="#1e1e1e" stroke-width="2" fill="none"/></g><g transform="translate(318.72518836364725 61.54847386684534) rotate(0 -13.537279977908156 7.999301805127544)"><path d="M-17.09 3.85 C-19.62 6.93, -22.15 10.01, -27.07 16 M-17.09 3.85 C-20.55 8.06, -24 12.26, -27.07 16" stroke="#1e1e1e" stroke-width="2" fill="none"/></g><g transform="translate(318.72518836364725 61.54847386684534) rotate(0 -13.537279977908156 7.999301805127544)"><path d="M-11.62 13.11 C-15.53 13.84, -19.45 14.57, -27.07 16 M-11.62 13.11 C-16.97 14.11, -22.32 15.11, -27.07 16" stroke="#1e1e1e" stroke-width="2" fill="none"/></g></g><mask/><g transform="translate(311.95654837469317 161.92305249032827) rotate(0 60.25390625 9.200000000000003)"><text x="0" y="0" font-family="Helvetica, Segoe UI Emoji" font-size="16px" fill="#1e1e1e" text-anchor="start" style="white-space: pre;" direction="ltr" dominant-baseline="text-before-edge">le cou = der Hals</text></g><g stroke-linecap="round"><g transform="translate(310.11055565043296 170.8710096842079) rotate(0 -19.918382981591435 -4.32143659957427)"><path d="M0 0 C-6.64 -1.44, -33.2 -7.2, -39.84 -8.64 M0 0 C-6.64 -1.44, -33.2 -7.2, -39.84 -8.64" stroke="#1e1e1e" stroke-width="2" fill="none"/></g><g transform="translate(310.11055565043296 170.8710096842079) rotate(0 -19.918382981591435 -4.32143659957427)"><path d="M-19.64 -11.39 C-24.19 -10.77, -28.74 -10.15, -39.84 -8.64 M-19.64 -11.39 C-23.83 -10.82, -28.03 -10.25, -39.84 -8.64" stroke="#1e1e1e" stroke-width="2" fill="none"/></g><g transform="translate(310.11055565043296 170.8710096842079) rotate(0 -19.918382981591435 -4.32143659957427)"><path d="M-22.6 2.23 C-26.48 -0.22, -30.37 -2.67, -39.84 -8.64 M-22.6 2.23 C-26.18 -0.03, -29.75 -2.28, -39.84 -8.64" stroke="#1e1e1e" stroke-width="2" fill="none"/></g></g><mask/><g stroke-linecap="round"><g transform="translate(182.73705767647888 115.33620386795948) rotate(0 15.376853534894295 -1.0532193262404945)"><path d="M0 0 C5.13 -0.35, 25.63 -1.76, 30.75 -2.11 M0 0 C5.13 -0.35, 25.63 -1.76, 30.75 -2.11" stroke="#1e1e1e" stroke-width="2" fill="none"/></g><g transform="translate(182.73705767647888 115.33620386795948) rotate(0 15.376853534894295 -1.0532193262404945)"><path d="M16.66 4.14 C19.8 2.75, 22.94 1.36, 30.75 -2.11 M16.66 4.14 C19.74 2.78, 22.81 1.42, 30.75 -2.11" stroke="#1e1e1e" stroke-width="2" fill="none"/></g><g transform="translate(182.73705767647888 115.33620386795948) rotate(0 15.376853534894295 -1.0532193262404945)"><path d="M15.94 -6.38 C19.24 -5.43, 22.54 -4.48, 30.75 -2.11 M15.94 -6.38 C19.18 -5.44, 22.41 -4.51, 30.75 -2.11" stroke="#1e1e1e" stroke-width="2" fill="none"/></g></g><mask/><g stroke-linecap="round"><g transform="translate(254.80761348191874 59.843479251834395) rotate(0 -19.218369854266548 41.83780168752193)"><path d="M-0.2 -0.02 C-6.85 4.19, -32.99 11.74, -39.18 25.87 C-45.37 40, -37.33 75.08, -37.33 84.76 M-1.76 -1.07 C-8.12 2.75, -31.11 10.16, -37.07 24.16 C-43.03 38.17, -37.14 72.82, -37.52 82.99" stroke="#1e1e1e" stroke-width="2" fill="none"/></g></g><mask/><g stroke-linecap="round"><g transform="translate(251.07772488605053 54.53931917988032) rotate(0 -20.80693688223232 42.14776598566159)"><path d="M0.36 0.34 C-6.48 4.59, -34.1 12.35, -40.95 26.51 C-47.8 40.67, -40.78 75.68, -40.75 85.29 M-0.91 -0.53 C-7.89 3.91, -35.07 10.82, -41.76 24.82 C-48.45 38.82, -41.34 73.41, -41.07 83.46" stroke="#1e1e1e" stroke-width="2" fill="none"/></g></g><mask/><g stroke-linecap="round"><g transform="translate(252.3967329113541 56.96195260797762) rotate(0 -19.838298450545878 41.95403829932431)"><path d="M0.86 0.99 C-5.59 5.04, -31.73 11.29, -38.44 25.13 C-45.15 38.98, -39.17 74.29, -39.4 84.06 M-0.15 0.47 C-6.7 4.63, -32.31 12.42, -38.95 26.58 C-45.6 40.75, -39.91 75.76, -40.02 85.46" stroke="#1e1e1e" stroke-width="2" fill="none"/></g></g><mask/><g stroke-linecap="round"><g transform="translate(272.3462981038484 54.06421800531001) rotate(0 19.94382122512701 40.593559439056094)"><path d="M-0.02 -1.12 C6.72 2.91, 33.71 10.61, 40.38 24.24 C47.06 37.87, 39.97 71.27, 40.02 80.67 M-1.49 0.91 C5.18 5.14, 33.1 12.37, 39.9 25.84 C46.71 39.31, 39.08 72.45, 39.33 81.72" stroke="#1e1e1e" stroke-width="2" fill="none"/></g></g><mask/><g stroke-linecap="round"><g transform="translate(267.46974246000025 59.2292208913029) rotate(0 18.535641856418394 40.822797940938884)"><path d="M0.14 -0.51 C6.24 3.47, 31.55 10.24, 37.52 24.04 C43.49 37.83, 36.24 72.63, 35.97 82.25 M-1.25 1.83 C4.69 5.96, 30.42 12.22, 37.01 25.29 C43.6 38.35, 38.53 70.62, 38.29 80.23" stroke="#1e1e1e" stroke-width="2" fill="none"/></g></g><mask/><g stroke-linecap="round"><g transform="translate(269.62566594728105 56.58618677434279) rotate(0 19.649086008420557 40.757301226115246)"><path d="M-1.1 0.61 C5.05 4.79, 30.86 11.1, 37.75 24.56 C44.65 38.01, 39.95 71.85, 40.28 81.34 M0.53 -0.12 C6.96 4.32, 33.28 12.37, 39.86 26.15 C46.45 39.93, 39.97 73.15, 40.03 82.57" stroke="#1e1e1e" stroke-width="2" fill="none"/></g></g><mask/><g stroke-linecap="round"><g transform="translate(254.2671558792627 59.69382755769644) rotate(0 6.664857151342183 -0.21818866934809478)"><path d="M-0.22 0.2 C2.02 0.03, 11.45 -0.72, 13.75 -0.83 M0.66 -0.18 C2.84 -0.3, 11.42 -0.38, 13.54 -0.33" stroke="#1e1e1e" stroke-width="2" fill="none"/></g></g><mask/><g stroke-linecap="round"><g transform="translate(252.91366399778707 56.96255421372075) rotate(0 8.246950443836003 -0.21392562367600476)"><path d="M-0.38 -0.31 C2.47 -0.33, 13.9 -0.13, 16.66 -0.14 M0.43 0.73 C3.25 0.54, 13.77 -0.87, 16.32 -0.96" stroke="#1e1e1e" stroke-width="2" fill="none"/></g></g><mask/><g stroke-linecap="round"><g transform="translate(250.44723426910463 54.46037301145674) rotate(0 10.943685567906222 -0.3045853344624021)"><path d="M0.46 -0.42 C4.17 -0.4, 18.5 -0.27, 22.04 -0.33 M0.03 0.55 C3.7 0.46, 18.15 -1.01, 21.69 -1.15" stroke="#1e1e1e" stroke-width="2" fill="none"/></g></g><mask/><g stroke-linecap="round"><g transform="translate(304.62132989948725 35.074100130316424) rotate(0 -15.57079610430931 7.428789469148654)"><path d="M-0.53 -0.15 C-5.69 2.25, -25.75 12.14, -30.94 14.62 M0.2 -0.7 C-5.02 1.75, -26.14 12.54, -31.27 15.2" stroke="#1e1e1e" stroke-width="2" fill="none"/></g><g transform="translate(304.62132989948725 35.074100130316424) rotate(0 -15.57079610430931 7.428789469148654)"><path d="M-19.54 2.55 C-23.35 6.69, -27.09 9.45, -31.27 15.2 M-19.54 2.55 C-22.6 6.1, -25.65 9.68, -31.27 15.2" stroke="#1e1e1e" stroke-width="2" fill="none"/></g><g transform="translate(304.62132989948725 35.074100130316424) rotate(0 -15.57079610430931 7.428789469148654)"><path d="M-14.15 13.05 C-19.64 13.94, -25.03 13.48, -31.27 15.2 M-14.15 13.05 C-18.68 13.75, -23.19 14.49, -31.27 15.2" stroke="#1e1e1e" stroke-width="2" fill="none"/></g></g><mask/><g transform="translate(13.496669985237787 273.2838786647203) rotate(0 66.9296875 9.2)"><text x="0" y="0" font-family="Helvetica, Segoe UI Emoji" font-size="16px" fill="#1e1e1e" text-anchor="start" style="white-space: pre;" direction="ltr" dominant-baseline="text-before-edge">la main = die Hand</text></g><g transform="translate(362.431955368387 218.474884010115) rotate(0 93.18359375 9.200000000000003)"><text x="0" y="0" font-family="Helvetica, Segoe UI Emoji" font-size="16px" fill="#1e1e1e" text-anchor="start" style="white-space: pre;" direction="ltr" dominant-baseline="text-before-edge">le coude = der Ellenbogen</text></g><g stroke-linecap="round"><g transform="translate(360.32669221049224 224.24582802948981) rotate(0 -12.631085876990106 1.8550136061687041)"><path d="M-0.39 0.55 C-4.7 1.08, -21.35 3, -25.59 3.44 M0.4 0.35 C-3.74 0.93, -20.33 3.48, -24.52 4.01" stroke="#1e1e1e" stroke-width="2" fill="none"/></g><g transform="translate(360.32669221049224 224.24582802948981) rotate(0 -12.631085876990106 1.8550136061687041)"><path d="M-13.25 -2 C-16.48 -0.35, -21.29 1.48, -24.52 4.01 M-13.25 -2 C-15.71 -0.67, -17.62 0.18, -24.52 4.01" stroke="#1e1e1e" stroke-width="2" fill="none"/></g><g transform="translate(360.32669221049224 224.24582802948981) rotate(0 -12.631085876990106 1.8550136061687041)"><path d="M-12.03 6.65 C-15.69 5.32, -20.93 4.17, -24.52 4.01 M-12.03 6.65 C-14.7 6.2, -16.86 5.27, -24.52 4.01" stroke="#1e1e1e" stroke-width="2" fill="none"/></g></g><mask/><g stroke-linecap="round"><g transform="translate(360.3266922104922 252.195386123876) rotate(0 -13.157894736842074 -0.2813036884594382)"><path d="M0.06 0.49 C-4.3 0.5, -21.51 -0.14, -25.96 -0.3 M-0.57 0.26 C-5 0.15, -22.05 -1.12, -26.21 -1.13" stroke="#1e1e1e" stroke-width="2" fill="none"/></g><g transform="translate(360.3266922104922 252.195386123876) rotate(0 -13.157894736842074 -0.2813036884594382)"><path d="M-13.66 -5.09 C-17.37 -3.31, -21.92 -2.8, -26.21 -1.13 M-13.66 -5.09 C-17.96 -3.77, -21.94 -2.44, -26.21 -1.13" stroke="#1e1e1e" stroke-width="2" fill="none"/></g><g transform="translate(360.3266922104922 252.195386123876) rotate(0 -13.157894736842074 -0.2813036884594382)"><path d="M-14.05 3.9 C-17.59 2.62, -22.01 0.06, -26.21 -1.13 M-14.05 3.9 C-18.27 2.35, -22.12 0.81, -26.21 -1.13" stroke="#1e1e1e" stroke-width="2" fill="none"/></g></g><mask/><g stroke-linecap="round"><g transform="translate(148.3560449852378 280.62078485085766) rotate(0 13.69838935968815 -0.5915405333102797)"><path d="M-0.38 -0.08 C4.29 -0.31, 23.09 -0.71, 27.74 -0.92 M0.43 -0.6 C5.08 -0.75, 23.02 -1.72, 27.48 -1.75" stroke="#1e1e1e" stroke-width="2" fill="none"/></g><g transform="translate(148.3560449852378 280.62078485085766) rotate(0 13.69838935968815 -0.5915405333102797)"><path d="M14.77 3.37 C17.78 2.58, 21.34 1.05, 27.48 -1.75 M14.77 3.37 C18.02 1.88, 21.78 0.5, 27.48 -1.75" stroke="#1e1e1e" stroke-width="2" fill="none"/></g><g transform="translate(148.3560449852378 280.62078485085766) rotate(0 13.69838935968815 -0.5915405333102797)"><path d="M14.45 -6 C17.58 -4.48, 21.22 -3.71, 27.48 -1.75 M14.45 -6 C17.81 -4.9, 21.65 -3.7, 27.48 -1.75" stroke="#1e1e1e" stroke-width="2" fill="none"/></g></g><mask/><g stroke-linecap="round"><g transform="translate(181.85660328035587 277.9711805030542) rotate(0 0 7.117733216094155)"><path d="M-0.16 0.18 C-0.18 2.47, -0.3 12.02, -0.26 14.3 M0.76 -0.21 C0.65 2.42, -0.66 12.62, -0.82 15.04" stroke="#1e1e1e" stroke-width="2" fill="none"/></g></g><mask/><g stroke-linecap="round"><g transform="translate(185.57741544194982 282.18076259677423) rotate(0 0 7.117733216094155)"><path d="M-0.37 0.41 C-0.31 2.78, 0.05 11.74, 0.02 14.07 M0.44 0.14 C0.46 2.61, -0.41 12.19, -0.4 14.68" stroke="#1e1e1e" stroke-width="2" fill="none"/></g></g><mask/><g stroke-linecap="round"><g transform="translate(189.64466403644184 282.888110178425) rotate(0 0 7.117733216094155)"><path d="M-0.25 0.33 C-0.35 2.72, -0.65 11.53, -0.54 13.86 M0.63 0.02 C0.68 2.52, 0.47 11.88, 0.41 14.37" stroke="#1e1e1e" stroke-width="2" fill="none"/></g></g><mask/><g stroke-linecap="round"><g transform="translate(193.35823884010847 278.4671877931076) rotate(0 0 7.117733216094155)"><path d="M-0.06 0.4 C-0.06 2.87, 0.12 12.05, 0.14 14.3 M-0.76 0.13 C-0.82 2.74, -0.3 12.67, -0.22 15.03" stroke="#1e1e1e" stroke-width="2" fill="none"/></g></g><mask/><g stroke-linecap="round"><g transform="translate(193.71191263093388 277.93667710686947) rotate(0 2.564134983484095 6.675640977562413)"><path d="M-0.46 -0.1 C0.43 2.15, 4.46 11.49, 5.37 13.66 M0.3 -0.63 C1.14 1.45, 4.34 10.53, 5.06 12.85" stroke="#1e1e1e" stroke-width="2" fill="none"/></g></g><mask/><g stroke-linecap="round"><g transform="translate(161.4916820901014 307.904103899241) rotate(0 9.195518561460219 -6.0124544440316825)"><path d="M-0.15 0.28 C3.01 -1.62, 15.73 -9.73, 18.74 -11.84 M0.77 -0.04 C3.91 -2.08, 15.45 -10.73, 18.49 -12.71" stroke="#1e1e1e" stroke-width="2" fill="none"/></g><g transform="translate(161.4916820901014 307.904103899241) rotate(0 9.195518561460219 -6.0124544440316825)"><path d="M12.22 -3.69 C14.16 -5.66, 15.68 -8.8, 18.49 -12.71 M12.22 -3.69 C13.79 -6.06, 15.25 -7.83, 18.49 -12.71" stroke="#1e1e1e" stroke-width="2" fill="none"/></g><g transform="translate(161.4916820901014 307.904103899241) rotate(0 9.195518561460219 -6.0124544440316825)"><path d="M7.89 -9.83 C10.92 -10.21, 13.55 -11.77, 18.49 -12.71 M7.89 -9.83 C10.46 -10.74, 12.94 -11.05, 18.49 -12.71" stroke="#1e1e1e" stroke-width="2" fill="none"/></g></g><mask/><g stroke-linecap="round"><g transform="translate(330.4867561357181 275.37639153206703) rotate(0 0 6.534380104257303)"><path d="M0.52 -0.28 C0.42 2, -0.4 11.15, -0.51 13.36 M0.13 0.76 C0.18 2.91, 0.57 10.42, 0.46 12.55" stroke="#1e1e1e" stroke-width="2" fill="none"/></g></g><mask/><g stroke-linecap="round"><g transform="translate(327.11724032885945 280.27858591827174) rotate(0 0 6.534380104257303)"><path d="M-0.51 0.29 C-0.62 2.5, -0.15 10.87, -0.12 12.98 M0.23 -0.03 C-0.01 2.29, -0.71 11.37, -0.61 13.64" stroke="#1e1e1e" stroke-width="2" fill="none"/></g></g><mask/><g stroke-linecap="round"><g transform="translate(323.1821700113633 280.87031535673793) rotate(0 0 6.534380104257303)"><path d="M-0.12 -0.09 C-0.09 2.03, -0.34 10.84, -0.33 12.98 M0.82 -0.61 C1.07 1.57, 0.94 11.33, 0.73 13.64" stroke="#1e1e1e" stroke-width="2" fill="none"/></g></g><mask/><g stroke-linecap="round"><g transform="translate(319.58994800391633 277.90698719909193) rotate(0 0 6.534380104257303)"><path d="M-0.33 -0.08 C-0.32 2.06, -0.07 10.63, -0.06 12.79 M0.5 -0.6 C0.44 1.62, -0.32 11.02, -0.52 13.35" stroke="#1e1e1e" stroke-width="2" fill="none"/></g></g><mask/><g stroke-linecap="round"><g transform="translate(319.7435735399084 277.1893737315642) rotate(0 -2.3539843531678315 6.1285207330214675)"><path d="M-0.06 -0.28 C-0.83 1.75, -4.14 9.93, -4.95 12.05 M-0.75 0.77 C-1.58 2.88, -4.73 10.86, -5.5 12.65" stroke="#1e1e1e" stroke-width="2" fill="none"/></g></g><mask/></svg>